<?xml version="1.0" ?><!DOCTYPE svg  PUBLIC '-//W3C//DTD SVG 1.1//EN'  'http://www.w3.org/Graphics/SVG/1.1/DTD/svg11.dtd'><svg enable-background="new 0 0 64 64" height="64px" version="1.1" viewBox="0 0 64 64" width="64px" xml:space="preserve" xmlns="http://www.w3.org/2000/svg" xmlns:xlink="http://www.w3.org/1999/xlink"><g id="Corona_virus_x2C__Covid-19_1_"><path d="M15.387,28.376l-0.978-0.212c0.358-1.648,0.947-3.238,1.753-4.727l0.879,0.477   C16.281,25.319,15.725,26.82,15.387,28.376z" fill="#37474F"/><path d="M14.237,34.932C14.08,33.969,14,32.982,14,32c0-0.717,0.042-1.438,0.126-2.143l0.993,0.118   C15.04,30.641,15,31.323,15,32c0,0.928,0.076,1.861,0.225,2.771L14.237,34.932z" fill="#37474F"/><path d="M17.502,42.669c-1.339-1.816-2.313-3.838-2.893-6.01l0.966-0.258c0.548,2.05,1.467,3.959,2.731,5.674   L17.502,42.669z" fill="#37474F"/><path d="M23.329,47.777c-1.807-0.995-3.419-2.283-4.792-3.83l0.748-0.664c1.297,1.461,2.82,2.678,4.527,3.618   L23.329,47.777z" fill="#37474F"/><path d="M32,50c-2.353,0-4.641-0.447-6.8-1.329l0.378-0.926C27.617,48.578,29.777,49,32,49   c5.002,0,9.729-2.19,12.968-6.008l0.763,0.646C42.301,47.682,37.296,50,32,50z" fill="#37474F"/><path d="M46.971,41.997l-0.831-0.556C48.011,38.644,49,35.379,49,32c0-2.525-0.541-4.956-1.606-7.223l0.905-0.426   C49.428,26.753,50,29.327,50,32C50,35.578,48.953,39.035,46.971,41.997z" fill="#37474F"/><path d="M46.328,22.848c-1.189-1.858-2.706-3.449-4.509-4.728l0.578-0.815c1.909,1.353,3.515,3.037,4.774,5.004   L46.328,22.848z" fill="#37474F"/><path d="M40.259,17.138c-1.218-0.678-2.516-1.204-3.858-1.563l0.258-0.966c1.422,0.38,2.797,0.937,4.086,1.654   L40.259,17.138z" fill="#37474F"/><path d="M28.02,15.469l-0.233-0.973c2.308-0.553,4.765-0.644,7.106-0.265l-0.159,0.987   C32.521,14.861,30.198,14.946,28.02,15.469z" fill="#37474F"/><path d="M22.286,18.047l-0.572-0.82c1.362-0.95,2.848-1.707,4.416-2.248l0.326,0.945   C24.976,16.435,23.573,17.149,22.286,18.047z" fill="#37474F"/><path d="M18.035,22.303l-0.821-0.571c0.845-1.214,1.839-2.323,2.954-3.296l0.657,0.753   C19.772,20.108,18.833,21.156,18.035,22.303z" fill="#37474F"/><g><path d="M33.5,43c-1.378,0-2.5-1.122-2.5-2.5s1.122-2.5,2.5-2.5s2.5,1.122,2.5,2.5S34.878,43,33.5,43z M33.5,39    c-0.827,0-1.5,0.673-1.5,1.5s0.673,1.5,1.5,1.5s1.5-0.673,1.5-1.5S34.327,39,33.5,39z" fill="#37474F"/></g><g><path d="M24.5,25.5c-1.378,0-2.5-1.122-2.5-2.5s1.122-2.5,2.5-2.5S27,21.622,27,23S25.878,25.5,24.5,25.5z     M24.5,21.5c-0.827,0-1.5,0.673-1.5,1.5s0.673,1.5,1.5,1.5S26,23.827,26,23S25.327,21.5,24.5,21.5z" fill="#37474F"/></g><g><path d="M24.5,37c-1.378,0-2.5-1.122-2.5-2.5s1.122-2.5,2.5-2.5s2.5,1.122,2.5,2.5S25.878,37,24.5,37z M24.5,33    c-0.827,0-1.5,0.673-1.5,1.5s0.673,1.5,1.5,1.5s1.5-0.673,1.5-1.5S25.327,33,24.5,33z" fill="#37474F"/></g><g><path d="M38.5,27c-1.378,0-2.5-1.122-2.5-2.5s1.122-2.5,2.5-2.5s2.5,1.122,2.5,2.5S39.878,27,38.5,27z M38.5,23    c-0.827,0-1.5,0.673-1.5,1.5s0.673,1.5,1.5,1.5s1.5-0.673,1.5-1.5S39.327,23,38.5,23z" fill="#37474F"/></g><g><path d="M40,37c-1.654,0-3-1.346-3-3s1.346-3,3-3s3,1.346,3,3S41.654,37,40,37z M40,32c-1.103,0-2,0.897-2,2    s0.897,2,2,2s2-0.897,2-2S41.103,32,40,32z" fill="#37474F"/></g><g><path d="M32,32c-1.654,0-3-1.346-3-3s1.346-3,3-3s3,1.346,3,3S33.654,32,32,32z M32,27c-1.103,0-2,0.897-2,2    s0.897,2,2,2s2-0.897,2-2S33.103,27,32,27z" fill="#37474F"/></g><g id="XMLID_22_"><g><path d="M24.313,12.201c-1.327,0-2.479-0.853-2.867-2.122c-0.484-1.581,0.408-3.262,1.989-3.746     c0.287-0.087,0.582-0.132,0.879-0.132c1.327,0,2.479,0.853,2.867,2.122c0.235,0.766,0.157,1.578-0.219,2.285     c-0.376,0.708-1.005,1.227-1.771,1.461C24.906,12.157,24.61,12.201,24.313,12.201z M24.314,7.201     c-0.198,0-0.395,0.029-0.586,0.088c-1.054,0.323-1.649,1.443-1.326,2.497c0.316,1.035,1.447,1.647,2.497,1.327     c0.511-0.156,0.93-0.502,1.181-0.974s0.302-1.013,0.146-1.523C25.967,7.77,25.199,7.201,24.314,7.201z" fill="#37474F"/></g><g><rect fill="#37474F" height="1" transform="matrix(0.2948 0.9555 -0.9555 0.2948 32.7403 -14.36)" width="8.141" x="22.029" y="14.503"/></g></g><g id="XMLID_23_"><g><path d="M34.185,59.248c-1.129,0-2.122-0.762-2.414-1.854c-0.356-1.332,0.437-2.705,1.768-3.062     c1.31-0.354,2.713,0.465,3.062,1.768c0.356,1.332-0.437,2.705-1.768,3.062C34.621,59.219,34.402,59.248,34.185,59.248z      M34.187,55.247c-0.13,0-0.262,0.018-0.39,0.052c-0.799,0.214-1.274,1.038-1.061,1.837c0.209,0.782,1.048,1.272,1.837,1.061     c0.799-0.214,1.274-1.039,1.061-1.837C35.458,55.704,34.863,55.247,34.187,55.247z" fill="#37474F"/></g><g><rect fill="#37474F" height="1" transform="matrix(0.0788 0.9969 -0.9969 0.0788 81.1436 13.3765)" width="8.467" x="29.1" y="50.095"/></g></g><g id="XMLID_24_"><g><path d="M38.525,10.152c-0.218,0-0.436-0.029-0.648-0.086c-1.331-0.356-2.124-1.73-1.768-3.062     c0.348-1.302,1.751-2.118,3.062-1.768c1.332,0.357,2.125,1.73,1.768,3.062C40.646,9.39,39.654,10.152,38.525,10.152z      M38.523,6.151c-0.677,0-1.272,0.457-1.448,1.112c-0.214,0.799,0.262,1.623,1.061,1.837c0.789,0.211,1.627-0.28,1.837-1.061     c0.214-0.799-0.262-1.623-1.061-1.837C38.785,6.168,38.653,6.151,38.523,6.151z" fill="#37474F"/></g><g><rect fill="#37474F" height="10.207" transform="matrix(0.9659 0.2588 -0.2588 0.9659 5.0063 -9.0003)" width="1" x="36.186" y="9.41"/></g></g><g id="XMLID_25_"><g><path d="M22.805,56.898c-0.336,0-0.664-0.067-0.976-0.199c-1.269-0.539-1.863-2.009-1.325-3.278     c0.525-1.235,2.038-1.851,3.278-1.325c0.615,0.261,1.091,0.746,1.341,1.365c0.25,0.619,0.244,1.298-0.017,1.913     C24.715,56.3,23.811,56.898,22.805,56.898z M22.807,52.897c-0.604,0-1.146,0.359-1.381,0.915     c-0.323,0.761,0.034,1.644,0.795,1.967c0.749,0.317,1.652-0.054,1.966-0.795c0.157-0.369,0.16-0.776,0.01-1.148     c-0.15-0.372-0.436-0.662-0.805-0.818C23.205,52.938,23.008,52.897,22.807,52.897z" fill="#37474F"/></g><g><rect fill="#37474F" height="10.207" transform="matrix(0.9206 0.3905 -0.3905 0.9206 20.7197 -6.1894)" width="1" x="25.08" y="42.755"/></g></g><g id="XMLID_26_"><g><path d="M46.418,14.924c-0.668,0-1.296-0.26-1.768-0.732c-0.472-0.472-0.732-1.1-0.732-1.768     s0.26-1.296,0.732-1.768c0.943-0.944,2.592-0.944,3.535,0c0.472,0.472,0.732,1.1,0.732,1.768s-0.26,1.296-0.732,1.768     C47.714,14.664,47.086,14.924,46.418,14.924z M46.418,10.924c-0.401,0-0.777,0.156-1.061,0.439s-0.439,0.66-0.439,1.061     s0.156,0.777,0.439,1.061c0.566,0.566,1.555,0.566,2.121,0c0.283-0.283,0.439-0.66,0.439-1.061s-0.156-0.777-0.439-1.061     S46.819,10.924,46.418,10.924z" fill="#37474F"/></g><g><rect fill="#37474F" height="5.337" transform="matrix(0.7988 0.6016 -0.6016 0.7988 18.3383 -22.895)" width="1" x="42.9" y="13.302"/></g></g><g id="XMLID_27_"><g><path d="M12.385,52.302c-0.802,0-1.555-0.313-2.121-0.879c-1.169-1.169-1.169-3.073,0-4.243     c1.133-1.133,3.109-1.133,4.243,0c1.169,1.17,1.169,3.073,0,4.243C13.939,51.99,13.186,52.302,12.385,52.302z M12.385,47.302     c-0.534,0-1.037,0.208-1.414,0.585c-0.78,0.78-0.78,2.049,0,2.829c0.755,0.756,2.073,0.756,2.829,0c0.78-0.78,0.78-2.049,0-2.829     C13.421,47.51,12.919,47.302,12.385,47.302z" fill="#37474F"/></g><g><rect fill="#37474F" height="7.149" transform="matrix(0.6143 0.7891 -0.7891 0.6143 42.4676 4.5096)" width="1" x="16.121" y="42.12"/></g></g><g id="XMLID_28_"><g><path d="M55.347,24.5c-1.354,0-2.545-0.915-2.896-2.224c-0.208-0.774-0.101-1.582,0.299-2.276     c0.401-0.694,1.047-1.19,1.821-1.397c1.574-0.422,3.255,0.559,3.673,2.121c0.208,0.774,0.101,1.582-0.299,2.276     c-0.4,0.694-1.047,1.19-1.821,1.397C55.871,24.465,55.608,24.5,55.347,24.5z M55.35,19.5c-0.174,0-0.349,0.023-0.519,0.069     c-0.516,0.138-0.947,0.469-1.214,0.931c-0.267,0.463-0.338,1.001-0.2,1.518c0.279,1.041,1.396,1.695,2.449,1.414     c0.516-0.138,0.947-0.469,1.214-0.931c0.267-0.463,0.338-1.001,0.2-1.518C57.046,20.11,56.252,19.5,55.35,19.5z" fill="#37474F"/></g><g><rect fill="#37474F" height="11.43" transform="matrix(0.4061 0.9138 -0.9138 0.4061 50.8638 -29.5866)" width="1" x="47.695" y="18.625"/></g></g><g id="XMLID_29_"><g><path d="M7.651,41.024c-1.129,0-2.122-0.762-2.414-1.854c-0.356-1.332,0.437-2.705,1.768-3.062     c1.314-0.351,2.713,0.466,3.062,1.768c0.357,1.331-0.436,2.705-1.768,3.062C8.086,40.996,7.869,41.024,7.651,41.024z      M7.653,37.024c-0.13,0-0.261,0.017-0.389,0.051c-0.799,0.214-1.275,1.038-1.061,1.837c0.21,0.781,1.046,1.273,1.837,1.061     c0.799-0.214,1.275-1.039,1.061-1.837C8.925,37.481,8.33,37.024,7.653,37.024z" fill="#37474F"/></g><g><rect fill="#37474F" height="10.207" transform="matrix(0.2588 0.9659 -0.9659 0.2588 46.1925 13.172)" width="1" x="14.013" y="31.582"/></g></g><g id="XMLID_30_"><g><path d="M55.849,42.524c-0.218,0-0.436-0.029-0.648-0.085c-1.332-0.357-2.125-1.731-1.768-3.062     c0.348-1.302,1.747-2.118,3.062-1.768c0.645,0.173,1.184,0.586,1.518,1.165s0.422,1.252,0.25,1.897     C57.971,41.762,56.978,42.524,55.849,42.524z M55.847,38.524c-0.677,0-1.272,0.457-1.448,1.112     c-0.214,0.799,0.262,1.623,1.061,1.837c0.793,0.213,1.628-0.28,1.837-1.061c0.104-0.387,0.051-0.791-0.15-1.138     c-0.2-0.347-0.523-0.595-0.911-0.699C56.108,38.541,55.978,38.524,55.847,38.524z" fill="#37474F"/></g><g><rect fill="#37474F" height="1" transform="matrix(0.9645 0.2641 -0.2641 0.9645 12.0507 -12.1365)" width="5.704" x="48.314" y="38.253"/></g></g><g id="XMLID_31_"><g><path d="M9.897,31.5c-0.218,0-0.436-0.029-0.648-0.085c-1.332-0.357-2.125-1.731-1.768-3.062     c0.348-1.302,1.751-2.119,3.062-1.768c1.332,0.357,2.125,1.73,1.768,3.062C12.019,30.738,11.026,31.5,9.897,31.5z M9.895,27.5     c-0.677,0-1.272,0.457-1.448,1.112c-0.214,0.799,0.262,1.623,1.061,1.837c0.787,0.211,1.628-0.28,1.837-1.061     c0.214-0.799-0.262-1.623-1.061-1.837C10.157,27.517,10.025,27.5,9.895,27.5z" fill="#37474F"/></g><g><rect fill="#37474F" height="1" transform="matrix(0.9895 0.1443 -0.1443 0.9895 4.4348 -1.6339)" width="3.344" x="11.811" y="29.259"/></g></g><g id="XMLID_32_"><g><path d="M7.897,22.5c-0.218,0-0.436-0.029-0.648-0.085c-1.332-0.357-2.125-1.731-1.768-3.062     c0.349-1.302,1.75-2.12,3.062-1.768c1.332,0.357,2.125,1.73,1.768,3.062C10.019,21.738,9.026,22.5,7.897,22.5z M7.895,18.5     c-0.677,0-1.272,0.457-1.448,1.112c-0.214,0.799,0.262,1.623,1.061,1.837c0.789,0.211,1.627-0.28,1.837-1.061     c0.214-0.799-0.262-1.623-1.061-1.837C8.157,18.517,8.025,18.5,7.895,18.5z" fill="#37474F"/></g><g><rect fill="#37474F" height="1" transform="matrix(0.9063 0.4225 -0.4225 0.9063 10.9872 -4.0526)" width="10.608" x="9.331" y="22.259"/></g></g><g id="XMLID_33_"><g><path d="M51.392,50.802c-0.6,0-1.18-0.216-1.634-0.608c-0.505-0.437-0.81-1.044-0.859-1.71     s0.165-1.311,0.602-1.816c0.868-1.002,2.522-1.126,3.526-0.257c1.043,0.901,1.158,2.483,0.257,3.526     C52.809,50.487,52.119,50.802,51.392,50.802z M51.394,46.802c-0.437,0-0.851,0.189-1.136,0.52c-0.262,0.303-0.39,0.69-0.361,1.09     c0.029,0.399,0.212,0.764,0.515,1.026c0.603,0.521,1.596,0.448,2.116-0.154c0.541-0.625,0.472-1.575-0.154-2.116     C52.102,46.932,51.753,46.802,51.394,46.802z" fill="#37474F"/></g><g><rect fill="#37474F" height="1" transform="matrix(0.7762 0.6305 -0.6305 0.7762 38.0798 -19.2757)" width="9.507" x="41.436" y="43.497"/></g></g><g id="XMLID_34_"><g><path d="M15.178,15.698c-0.668,0-1.296-0.26-1.768-0.732c-0.472-0.472-0.732-1.1-0.732-1.768     s0.26-1.296,0.732-1.768c0.943-0.944,2.592-0.944,3.535,0c0.472,0.472,0.732,1.1,0.732,1.768c0,0.667-0.26,1.295-0.732,1.768     C16.474,15.438,15.846,15.698,15.178,15.698z M15.178,11.698c-0.401,0-0.777,0.156-1.061,0.439s-0.439,0.66-0.439,1.061     s0.156,0.777,0.439,1.061c0.566,0.566,1.555,0.566,2.121,0c0.283-0.283,0.439-0.66,0.439-1.061c0-0.401-0.156-0.777-0.439-1.061     S15.579,11.698,15.178,11.698z" fill="#37474F"/></g><g><rect fill="#37474F" height="1" transform="matrix(0.6727 0.7399 -0.7399 0.6727 18.6305 -8.2902)" width="6.227" x="15.573" y="16.415"/></g></g><rect fill="#37474F" height="1" width="1" x="42" y="21"/><rect fill="#37474F" height="1" width="1" x="29" y="35"/><rect fill="#37474F" height="1" width="1" x="24" y="43"/><rect fill="#37474F" height="1" width="1" x="21" y="40"/><rect fill="#37474F" height="1" width="1" x="24" y="39"/><rect fill="#37474F" height="1" width="1" x="38" y="43"/><rect fill="#37474F" height="1" width="1" x="39" y="40"/><rect fill="#37474F" height="1" width="1" x="46" y="34"/><rect fill="#37474F" height="1" width="1" x="45" y="30"/><rect fill="#37474F" height="1" width="1" x="29" y="23"/><rect fill="#37474F" height="1" width="1" x="32" y="21"/><rect fill="#37474F" height="1" width="1" x="31" y="19"/><rect fill="#37474F" height="1" width="1" x="33" y="34"/><rect fill="#37474F" height="1" width="1" x="18" y="30"/><rect fill="#37474F" height="1" width="1" x="21" y="27"/><g id="XMLID_35_"><g><path d="M42.999,55.123c-1.129,0-2.122-0.762-2.414-1.854c-0.356-1.332,0.437-2.705,1.768-3.062     c1.31-0.353,2.713,0.465,3.062,1.768c0.356,1.332-0.437,2.705-1.768,3.062C43.435,55.094,43.217,55.123,42.999,55.123z      M43.001,51.122c-0.13,0-0.262,0.018-0.39,0.052c-0.799,0.214-1.275,1.038-1.061,1.837c0.21,0.781,1.049,1.273,1.837,1.061     c0.799-0.214,1.275-1.039,1.061-1.837C44.273,51.579,43.678,51.122,43.001,51.122z" fill="#37474F"/></g><g><rect fill="#37474F" height="1" transform="matrix(0.5147 0.8574 -0.8574 0.5147 62.1096 -11.2586)" width="3.887" x="39.056" y="48.733"/></g></g><g id="XMLID_36_"><g><path d="M54.111,33.7c-1.331,0-2.427-1.042-2.495-2.373c-0.034-0.667,0.194-1.307,0.642-1.803     c0.447-0.496,1.061-0.787,1.728-0.821l0.129-0.003c1.331,0,2.427,1.042,2.495,2.373c0.034,0.667-0.194,1.307-0.641,1.803     c-0.448,0.496-1.062,0.787-1.729,0.821L54.111,33.7z M54.115,29.7c-0.479,0.022-0.847,0.197-1.115,0.495     s-0.405,0.681-0.385,1.082c0.041,0.798,0.698,1.423,1.496,1.423l0.078-0.002c0.4-0.02,0.769-0.195,1.037-0.493     s0.405-0.681,0.384-1.081C55.57,30.325,54.913,29.7,54.115,29.7z" fill="#37474F"/></g><g><rect fill="#37474F" height="1" transform="matrix(0.9994 0.0342 -0.0342 0.9994 1.0977 -1.7159)" width="2.743" x="49.373" y="30.755"/></g></g></g></svg>