<svg xmlns="http://www.w3.org/2000/svg" viewBox="0 0 750 500"><g id="freepik--Screen--inject-101"><rect x="112.06" y="61.98" width="525.87" height="318.05" style="fill:#fff"></rect><path d="M637.94,380l-525.88.37h-.37V380l-.12-318v-.5h.49l525.88.21h.29V62Zm0,0-.3-318,.3.29-525.88.21.5-.5-.12,318-.38-.37Z" style="fill:#ebebeb"></path><rect x="112.06" y="61.98" width="525.87" height="8.23" style="fill:#37474f"></rect><path d="M118.61,66.09a2,2,0,1,1-2-2A2,2,0,0,1,118.61,66.09Z" style="fill:#c7c7c7"></path><path d="M126.94,66.09a2,2,0,1,1-2-2A2,2,0,0,1,126.94,66.09Z" style="fill:#fff"></path><path d="M135.28,66.09a2,2,0,1,1-2-2A2,2,0,0,1,135.28,66.09Z" style="fill:#EA4659"></path><rect x="628.9" y="70.21" width="9.03" height="309.82" style="fill:#dbdbdb"></rect><path d="M633.41,177.62h0a2.33,2.33,0,0,1-2.33-2.33V74.36A2.33,2.33,0,0,1,633.41,72h0a2.34,2.34,0,0,1,2.34,2.34V175.29A2.33,2.33,0,0,1,633.41,177.62Z" style="fill:#a6a6a6"></path><rect x="141.28" y="206.47" width="1.5" height="1" style="fill:#37474f"></rect><path d="M577.54,207.47h-3v-1h3Zm-6,0h-3v-1h3Zm-6,0h-3v-1h3Zm-6,0h-3v-1h3Zm-6,0h-3v-1h3Zm-6,0h-3v-1h3Zm-6,0h-3v-1h3Zm-6,0h-3v-1h3Zm-6,0h-3v-1h3Zm-6,0h-3v-1h3Zm-6,0h-3v-1h3Zm-6,0h-3v-1h3Zm-6,0h-3v-1h3Zm-6,0h-3v-1h3Zm-6,0h-3v-1h3Zm-6,0h-3v-1h3Zm-6,0h-3v-1h3Zm-6,0h-3v-1h3Zm-6,0h-3v-1h3Zm-6,0h-3v-1h3Zm-6,0h-3v-1h3Zm-6,0h-3v-1h3Zm-6,0h-3v-1h3Zm-6,0h-3v-1h3Zm-6,0h-3v-1h3Zm-6,0h-3v-1h3Zm-6,0h-3v-1h3Zm-6,0h-3v-1h3Zm-6,0h-3v-1h3Zm-6,0h-3v-1h3Zm-6,0h-3v-1h3Zm-6,0h-3v-1h3Zm-6,0h-3v-1h3Zm-6,0h-3v-1h3Zm-6,0h-3v-1h3Zm-6,0h-3v-1h3Zm-6,0h-3v-1h3Zm-6,0h-3v-1h3Zm-6,0h-3v-1h3Zm-6,0h-3v-1h3Zm-6,0h-3v-1h3Zm-6,0h-3v-1h3Zm-6,0h-3v-1h3Zm-6,0h-3v-1h3Zm-6,0h-3v-1h3Zm-6,0h-3v-1h3Zm-6,0h-3v-1h3Zm-6,0h-3v-1h3Zm-6,0h-3v-1h3Zm-6,0h-3v-1h3Zm-6,0h-3v-1h3Zm-6,0h-3v-1h3Zm-6,0h-3v-1h3Zm-6,0h-3v-1h3Zm-6,0h-3v-1h3Zm-6,0h-3v-1h3Zm-6,0h-3v-1h3Zm-6,0h-3v-1h3Zm-6,0h-3v-1h3Zm-6,0h-3v-1h3Zm-6,0h-3v-1h3Zm-6,0h-3v-1h3Zm-6,0h-3v-1h3Zm-6,0h-3v-1h3Zm-6,0h-3v-1h3Zm-6,0h-3v-1h3Zm-6,0h-3v-1h3Zm-6,0h-3v-1h3Zm-6,0h-3v-1h3Zm-6,0h-3v-1h3Zm-6,0h-3v-1h3Zm-6,0h-3v-1h3Z" style="fill:#37474f"></path><rect x="580.56" y="206.47" width="1.5" height="1" style="fill:#37474f"></rect><rect x="141.28" y="115.48" width="1.5" height="1" style="fill:#37474f"></rect><path d="M577.54,116.48h-3v-1h3Zm-6,0h-3v-1h3Zm-6,0h-3v-1h3Zm-6,0h-3v-1h3Zm-6,0h-3v-1h3Zm-6,0h-3v-1h3Zm-6,0h-3v-1h3Zm-6,0h-3v-1h3Zm-6,0h-3v-1h3Zm-6,0h-3v-1h3Zm-6,0h-3v-1h3Zm-6,0h-3v-1h3Zm-6,0h-3v-1h3Zm-6,0h-3v-1h3Zm-6,0h-3v-1h3Zm-6,0h-3v-1h3Zm-6,0h-3v-1h3Zm-6,0h-3v-1h3Zm-6,0h-3v-1h3Zm-6,0h-3v-1h3Zm-6,0h-3v-1h3Zm-6,0h-3v-1h3Zm-6,0h-3v-1h3Zm-6,0h-3v-1h3Zm-6,0h-3v-1h3Zm-6,0h-3v-1h3Zm-6,0h-3v-1h3Zm-6,0h-3v-1h3Zm-6,0h-3v-1h3Zm-6,0h-3v-1h3Zm-6,0h-3v-1h3Zm-6,0h-3v-1h3Zm-6,0h-3v-1h3Zm-6,0h-3v-1h3Zm-6,0h-3v-1h3Zm-6,0h-3v-1h3Zm-6,0h-3v-1h3Zm-6,0h-3v-1h3Zm-6,0h-3v-1h3Zm-6,0h-3v-1h3Zm-6,0h-3v-1h3Zm-6,0h-3v-1h3Zm-6,0h-3v-1h3Zm-6,0h-3v-1h3Zm-6,0h-3v-1h3Zm-6,0h-3v-1h3Zm-6,0h-3v-1h3Zm-6,0h-3v-1h3Zm-6,0h-3v-1h3Zm-6,0h-3v-1h3Zm-6,0h-3v-1h3Zm-6,0h-3v-1h3Zm-6,0h-3v-1h3Zm-6,0h-3v-1h3Zm-6,0h-3v-1h3Zm-6,0h-3v-1h3Zm-6,0h-3v-1h3Zm-6,0h-3v-1h3Zm-6,0h-3v-1h3Zm-6,0h-3v-1h3Zm-6,0h-3v-1h3Zm-6,0h-3v-1h3Zm-6,0h-3v-1h3Zm-6,0h-3v-1h3Zm-6,0h-3v-1h3Zm-6,0h-3v-1h3Zm-6,0h-3v-1h3Zm-6,0h-3v-1h3Zm-6,0h-3v-1h3Zm-6,0h-3v-1h3Zm-6,0h-3v-1h3Zm-6,0h-3v-1h3Z" style="fill:#37474f"></path><rect x="580.56" y="115.48" width="1.5" height="1" style="fill:#37474f"></rect><path d="M423.05,330.29l-164.62,0-117.15,0S174.49,314.1,195,282.81C212.49,256,230.07,207,258.43,207s43.12,47,64.59,71.17C353.75,312.73,423.05,330.29,423.05,330.29Z" style="fill:#EA4659"></path><path d="M612,330.28l-123.69,0-173.79,0s66.33-30.48,98.78-90.46c22.67-41.89,39.32-123.5,75-123.5,29.94,0,48.51,85,67,131.57C576.93,302.18,612,330.28,612,330.28Z" style="fill:#455a64"></path><polygon points="612 330.8 140.78 330.8 140.78 95.96 141.78 95.96 141.78 329.8 612 329.8 612 330.8" style="fill:#37474f"></polygon><rect x="170.63" y="327.03" width="1" height="6.57" style="fill:#37474f"></rect><rect x="200.02" y="327.03" width="1" height="6.57" style="fill:#37474f"></rect><rect x="229.41" y="327.03" width="1" height="6.57" style="fill:#37474f"></rect><rect x="258.8" y="327.03" width="1" height="6.57" style="fill:#37474f"></rect><rect x="288.19" y="327.03" width="1" height="6.57" style="fill:#37474f"></rect><rect x="317.58" y="327.03" width="1" height="6.57" style="fill:#37474f"></rect><rect x="346.98" y="327.03" width="1" height="6.57" style="fill:#37474f"></rect><rect x="376.37" y="327.03" width="1" height="6.57" style="fill:#37474f"></rect><rect x="405.76" y="327.03" width="1" height="6.57" style="fill:#37474f"></rect><rect x="435.15" y="327.03" width="1" height="6.57" style="fill:#37474f"></rect><rect x="464.54" y="327.03" width="1" height="6.57" style="fill:#37474f"></rect><rect x="493.94" y="327.03" width="1" height="6.57" style="fill:#37474f"></rect><rect x="523.33" y="327.03" width="1" height="6.57" style="fill:#37474f"></rect><rect x="552.72" y="327.03" width="1" height="6.57" style="fill:#37474f"></rect><rect x="582.11" y="327.03" width="1" height="6.57" style="fill:#37474f"></rect><rect x="611.5" y="327.03" width="1" height="6.57" style="fill:#37474f"></rect><rect x="138" y="301.2" width="6.56" height="1" style="fill:#37474f"></rect><rect x="138" y="271.81" width="6.56" height="1" style="fill:#37474f"></rect><rect x="138" y="242.42" width="6.56" height="1" style="fill:#37474f"></rect><rect x="138" y="213.03" width="6.56" height="1" style="fill:#37474f"></rect><rect x="138" y="183.63" width="6.56" height="1" style="fill:#37474f"></rect><rect x="138" y="154.24" width="6.56" height="1" style="fill:#37474f"></rect><rect x="138" y="124.85" width="6.56" height="1" style="fill:#37474f"></rect><rect x="138" y="95.46" width="6.56" height="1" style="fill:#37474f"></rect><text transform="translate(233.03 351.09)" style="font-size:11.388587951660156px;fill:#263238;font-family:Bebas">F<tspan x="5.4" y="0" style="letter-spacing:0.027739871711132326em">I</tspan><tspan x="8.3" y="0" style="letter-spacing:-0.022766417123046778em">R</tspan><tspan x="14.22" y="0" style="letter-spacing:0.00004287460851797886em">ST </tspan><tspan x="27.2" y="0" style="letter-spacing:-0.10937312632936408em">W</tspan><tspan x="34.89" y="0" style="letter-spacing:-0.11932003550553517em">A</tspan><tspan x="40.11" y="0" style="letter-spacing:0.019893818352342194em">V</tspan><tspan x="47.15" y="0">E</tspan></text><text transform="translate(454.57 351.09)" style="font-size:11.388587951660156px;fill:#263238;font-family:Bebas"><tspan style="letter-spacing:0.019207824616054532em">S</tspan><tspan x="6.33" y="0" style="letter-spacing:-0.00008574921703595772em">E</tspan><tspan x="11.73" y="0" style="letter-spacing:0.015692106717580263em">C</tspan><tspan x="17.8" y="0" style="letter-spacing:0.025467517459679446em">O</tspan><tspan x="23.99" y="0" style="letter-spacing:0.02769699710261434em">N</tspan><tspan x="30.63" y="0" style="letter-spacing:0.00008574921703595772em">D </tspan><tspan x="37.54" y="0" style="letter-spacing:-0.10933025172084611em">W</tspan><tspan x="45.23" y="0" style="letter-spacing:-0.11936291011405316em">A</tspan><tspan x="50.45" y="0" style="letter-spacing:0.019893818352342194em">V</tspan><tspan x="57.48" y="0">E</tspan></text></g><g id="freepik--Virus--inject-101"><path d="M251.76,171.55l2.2-3c.1-.13-.39-1-.24-1.17s2.19.64,2,1c-.13.25-.82.31-.9.42s-1.51,3.56-1.51,3.56Z" style="fill:#EA4659"></path><path d="M253.92,167.4a4.24,4.24,0,0,0,1.66.82"></path><path d="M251.76,171.55l2.2-3c.1-.13-.39-1-.24-1.17s2.19.64,2,1c-.13.25-.82.31-.9.42s-1.51,3.56-1.51,3.56Z" style="opacity:0.1"></path><path d="M246.62,171.67s-.56-3.54-.59-3.71-1-.42-1-.66,2-1.09,2.14-.65c.08.26-.36.79-.34.92s1.45,3.59,1.45,3.59Z" style="fill:#EA4659"></path><path d="M245.22,167.21a4.38,4.38,0,0,0,1.76-.6"></path><path d="M246.62,171.67s-.56-3.54-.59-3.71-1-.42-1-.66,2-1.09,2.14-.65c.08.26-.36.79-.34.92s1.45,3.59,1.45,3.59Z" style="opacity:0.1"></path><path d="M243.07,175.38l-3-2.2c-.14-.1-1,.39-1.18.24s.65-2.19,1-2c.24.13.31.83.42.9s3.56,1.51,3.56,1.51Z" style="fill:#EA4659"></path><path d="M238.93,173.22a4.39,4.39,0,0,0,.82-1.66"></path><path d="M243.07,175.38l-3-2.2c-.14-.1-1,.39-1.18.24s.65-2.19,1-2c.24.13.31.83.42.9s3.56,1.51,3.56,1.51Z" style="opacity:0.1"></path><path d="M243.19,180.52l-3.7.59c-.16,0-.42,1-.66,1s-1.09-2-.66-2.14c.26-.08.8.37.93.34s3.59-1.45,3.59-1.45Z" style="fill:#EA4659"></path><path d="M238.74,181.92a4.3,4.3,0,0,0-.6-1.75"></path><path d="M243.19,180.52l-3.7.59c-.16,0-.42,1-.66,1s-1.09-2-.66-2.14c.26-.08.8.37.93.34s3.59-1.45,3.59-1.45Z" style="opacity:0.1"></path><path d="M246.91,184.07l-2.2,3c-.1.14.39,1,.24,1.18s-2.19-.65-2-1.05c.13-.24.82-.31.9-.42s1.51-3.56,1.51-3.56Z" style="fill:#EA4659"></path><path d="M244.75,188.21a4.39,4.39,0,0,0-1.66-.82"></path><path d="M246.91,184.07l-2.2,3c-.1.14.39,1,.24,1.18s-2.19-.65-2-1.05c.13-.24.82-.31.9-.42s1.51-3.56,1.51-3.56Z" style="opacity:0.1"></path><path d="M252.05,184s.56,3.53.59,3.7,1,.42,1,.66-2,1.09-2.14.66c-.08-.26.36-.8.34-.93s-1.45-3.58-1.45-3.58Z" style="fill:#EA4659"></path><path d="M253.45,188.41a4.3,4.3,0,0,0-1.76.59"></path><path d="M252.05,184s.56,3.53.59,3.7,1,.42,1,.66-2,1.09-2.14.66c-.08-.26.36-.8.34-.93s-1.45-3.58-1.45-3.58Z" style="opacity:0.1"></path><path d="M255.6,180.23l3,2.2c.14.1,1-.39,1.18-.23s-.65,2.18-1.05,2c-.24-.13-.31-.82-.42-.89s-3.56-1.52-3.56-1.52Z" style="fill:#EA4659"></path><path d="M259.74,182.39a4.39,4.39,0,0,0-.82,1.66"></path><path d="M255.6,180.23l3,2.2c.14.1,1-.39,1.18-.23s-.65,2.18-1.05,2c-.24-.13-.31-.82-.42-.89s-3.56-1.52-3.56-1.52Z" style="opacity:0.1"></path><path d="M255.48,175.09l3.7-.58c.16,0,.42-1,.66-1s1.09,2,.66,2.13c-.26.08-.8-.36-.93-.34s-3.59,1.45-3.59,1.45Z" style="fill:#EA4659"></path><path d="M259.93,173.69a4.33,4.33,0,0,0,.6,1.76"></path><path d="M255.48,175.09l3.7-.58c.16,0,.42-1,.66-1s1.09,2,.66,2.13c-.26.08-.8-.36-.93-.34s-3.59,1.45-3.59,1.45Z" style="opacity:0.1"></path><path d="M251,171l2.33-4.6c.08-.14-.51-.93-.38-1.14s2.26.38,2.1.81c-.1.25-.78.4-.84.52s-1.58,5-1.58,5Z" style="fill:#EA4659"></path><path d="M253.14,165.29a4.33,4.33,0,0,0,1.75.62"></path><path d="M245.78,171.91l-1.61-4.9c0-.16-1-.3-1.07-.54s1.86-1.33,2.05-.91c.11.25-.27.84-.23,1s2.45,4.68,2.45,4.68Z" style="fill:#EA4659"></path><path d="M243.27,166.36a4.36,4.36,0,0,0,1.68-.81"></path><path d="M242.75,176.24l-4.6-2.33c-.15-.08-.94.51-1.15.38s.38-2.26.81-2.1c.26.1.4.79.52.84s5,1.58,5,1.58Z" style="fill:#EA4659"></path><path d="M237.05,174.08a4.38,4.38,0,0,0,.61-1.75"></path><path d="M243.66,181.44l-4.9,1.61c-.16,0-.3,1-.54,1.08s-1.32-1.87-.91-2.06c.25-.11.84.27,1,.23s4.68-2.45,4.68-2.45Z" style="fill:#EA4659"></path><path d="M238.11,184a4.36,4.36,0,0,0-.81-1.68"></path><path d="M248,184.48s-2.24,4.45-2.33,4.59.51.94.38,1.15-2.26-.38-2.09-.81c.09-.26.78-.4.84-.52s1.57-5,1.57-5Z" style="fill:#EA4659"></path><path d="M245.84,190.18a4.4,4.4,0,0,0-1.76-.62"></path><path d="M253.2,183.56s1.56,4.73,1.6,4.9,1,.3,1.08.54-1.87,1.33-2,.91c-.12-.25.26-.84.22-1s-2.45-4.68-2.45-4.68Z" style="fill:#EA4659"></path><path d="M255.7,189.11a4.28,4.28,0,0,0-1.67.81"></path><path d="M256.23,179.23l4.6,2.33c.15.08.94-.51,1.14-.38s-.38,2.26-.81,2.1c-.25-.1-.4-.79-.52-.85s-5-1.57-5-1.57Z" style="fill:#EA4659"></path><path d="M261.93,181.38a4.4,4.4,0,0,0-.62,1.76"></path><path d="M255.31,174l4.9-1.61c.16,0,.3-1,.54-1.08s1.33,1.87.91,2.06c-.25.11-.84-.27-1-.23s-4.68,2.45-4.68,2.45Z" style="fill:#EA4659"></path><path d="M260.87,171.52a4.29,4.29,0,0,0,.8,1.68"></path><path d="M257.75,179.64a8.42,8.42,0,0,1-10,6.56,8.7,8.7,0,1,1,4-16.94,8,8,0,0,1,2.94,1.32A8.84,8.84,0,0,1,257.75,179.64Z" style="fill:#EA4659"></path><path d="M257.75,179.64a8.42,8.42,0,0,1-10,6.56,8.63,8.63,0,0,1-6.34-5c2,1.61,6.21,4.17,10.39,2.18,5.8-2.75,5.41-9.38,2.86-12.83A8.84,8.84,0,0,1,257.75,179.64Z" style="opacity:0.1"></path><path d="M250.13,171.47h-2s0-.08,0-.22c.12-.8.53-3.52.56-3.68s-.92-.79-.87-1.06c0-.12.55-.24,1.12-.28s1.43,0,1.43.28-.67.74-.68.9S250.13,171.47,250.13,171.47Z" style="fill:#EA4659"></path><path d="M248.12,166.47a4.94,4.94,0,0,0,2.1-.06Z"></path><path d="M248.19,171.25c.12-.8.53-3.52.56-3.68s-.92-.79-.87-1.06c0-.12.55-.24,1.12-.28a1.41,1.41,0,0,0-.53.23.21.21,0,0,0,0,.06c0,.07,0,.14,0,.22s.61.45.62.66S248.22,171.14,248.19,171.25Z" style="opacity:0.1"></path><path d="M245.4,172.54l-1.4,1.4a.3.3,0,0,0-.05-.08h0l-2.27-3.09c-.12-.16-1.21.09-1.36-.14s.61-1.12,1.19-1.59c.26-.21.49-.32.61-.21s.06,1,.15,1.11S245.4,172.54,245.4,172.54Z" style="fill:#EA4659"></path><path d="M240.45,170.43a5,5,0,0,0,1.44-1.54Z"></path><path d="M243.94,173.85l-2.27-3.09c-.12-.16-1.21.09-1.36-.14s.61-1.12,1.19-1.59a3.5,3.5,0,0,0-.53.84,1.08,1.08,0,0,0-.06.2c0,.09,0,.15.05.17.22.07.71-.1.93,0A41.21,41.21,0,0,1,243.94,173.85Z" style="opacity:0.1"></path><path d="M242.81,176.64v2h0l-3.89-.59c-.19,0-.78.92-1,.86a3.4,3.4,0,0,1-.11-2.5.15.15,0,0,1,.11,0c.31,0,.74.66.89.68S242.81,176.64,242.81,176.64Z" style="fill:#EA4659"></path><path d="M237.82,178.65a5,5,0,0,0-.06-2.11Z"></path><path d="M242.8,178.61l-3.89-.59c-.19,0-.78.92-1,.86a3.4,3.4,0,0,1-.11-2.5,1.93,1.93,0,0,0,.05,1.55l.09.16c.06.08.12.12.16.11.22,0,.56-.51.88-.48S242.59,178.56,242.8,178.61Z" style="opacity:0.1"></path><path d="M242.1,185.1c-.11.08,0,.68,0,1.07a.36.36,0,0,1-.09.29c-.23.15-2.17-1.43-1.8-1.8.22-.22,1-.06,1.11-.15s1.1-1.3,1.82-2.18h0l.77-.95,1.4,1.4Z" style="fill:#EA4659"></path><path d="M241.78,186.32a5,5,0,0,0-1.54-1.44Z"></path><path d="M242.06,186.17a.36.36,0,0,1-.09.29c-.23.15-2.17-1.43-1.8-1.8.22-.22,1-.06,1.11-.15s1.1-1.3,1.82-2.18a19,19,0,0,1-1.59,2.46c-.18.08-.67.08-.72.32a.3.3,0,0,0,0,.16,2.53,2.53,0,0,0,.36.5,3.26,3.26,0,0,0,.48.45l.07.05c.09.06.17.08.21,0A.22.22,0,0,0,242.06,186.17Z" style="opacity:0.1"></path><path d="M250.23,188.91c0,.06-.17.13-.4.18-.71.16-2.14.21-2.14-.18s.66-.75.67-.89-.17-2.08-.29-3.22h0c0-.49-.09-.84-.09-.84h2l-.6,3.89C249.34,188,250.29,188.64,250.23,188.91Z" style="fill:#EA4659"></path><path d="M250,189a5,5,0,0,0-2.11.06Z"></path><path d="M249.83,189.09c-.71.16-2.14.21-2.14-.18s.66-.75.67-.89-.17-2.08-.29-3.22c.21,1.07.63,3.13.6,3.22s-.54.66-.4.84l.06,0a.77.77,0,0,0,.28.09A6.46,6.46,0,0,0,249.83,189.09Z" style="opacity:0.1"></path><path d="M257.16,185.86c-.44.49-1,.93-1.15.74s-.06-1-.16-1.11-2.32-2-3-2.46h0l-.18-.14,1.4-1.39s2.22,3,2.34,3.17,1.2-.09,1.36.14S257.56,185.41,257.16,185.86Z" style="fill:#EA4659"></path><path d="M257.67,185a5,5,0,0,0-1.45,1.54Z"></path><path d="M257.16,185.86c-.44.49-1,.93-1.15.74s-.06-1-.16-1.11-2.32-2-3-2.46h0s3.3,2.1,3.33,2.28,0,.89.18.91a.24.24,0,0,0,.14,0A3.34,3.34,0,0,0,257.16,185.86Z" style="opacity:0.1"></path><path d="M260.26,179.08c-.17,0-.37-.19-.54-.36s-.29-.31-.36-.32c-.25,0-4.06.38-4.06.38v-2l.8.12h0l3.09.47c.19,0,.79-.92,1.06-.87S260.77,179.08,260.26,179.08Z" style="fill:#EA4659"></path><path d="M260.29,176.77a4.88,4.88,0,0,0,.07,2.11Z"></path><path d="M260.26,179.08c-.17,0-.37-.19-.54-.36a2.53,2.53,0,0,0,.48,0,.11.11,0,0,0,.09,0,.32.32,0,0,0,.06-.13,2.32,2.32,0,0,0,0-.94,1.18,1.18,0,0,0-.1-.27h0c0-.06-.07-.1-.11-.1-.25,0-.7.54-1.06.49s-2-.52-2.94-.79l3.09.47c.19,0,.79-.92,1.06-.87S260.77,179.08,260.26,179.08Z" style="opacity:0.1"></path><path d="M258,170.76c-.22.22-1,.06-1.12.15s-2.6,3.14-2.6,3.14l-1.4-1.39.31-.23h0l2.87-2.11c.15-.12-.1-1.21.14-1.36s.68.3,1.15.74h0C257.76,170.11,258.12,170.58,258,170.76Z" style="fill:#EA4659"></path><path d="M256.34,169.1a4.88,4.88,0,0,0,1.53,1.45Z"></path><path d="M257.3,169.7a2,2,0,0,0-.56-.23h-.13c-.11,0-.19,0-.2.15-.05.29.13.82,0,1s-3.15,1.77-3.27,1.83l2.87-2.11c.15-.12-.1-1.21.14-1.36S256.83,169.26,257.3,169.7Z" style="opacity:0.1"></path><g style="opacity:0.1"><path d="M246.67,183c-.09.19-.4.22-.71.08s-.49-.4-.4-.59.4-.22.71-.07S246.75,182.82,246.67,183Z"></path><path d="M246.46,183.66a2.07,2.07,0,0,1-1.21-.57.65.65,0,0,1-.19-.71c.13-.33.43-.32.73-.35,0,0,0,0,0,0-.52-.06-1.13.15-1,.78s1,1.05,1.68,1A.06.06,0,0,0,246.46,183.66Z"></path><path d="M247.83,172.49c0,.21-.32.42-.77.48s-.83-.06-.86-.26.32-.41.77-.47S247.8,172.29,247.83,172.49Z"></path><path d="M246.67,173.39a1.94,1.94,0,0,1-.67-.21.5.5,0,0,1-.14-.73,1.56,1.56,0,0,1,1.1-.6s0,0,0,0c-.51,0-1.27.28-1.43.83-.22.71.65.84,1.15.83C246.72,173.47,246.71,173.4,246.67,173.39Z"></path><path d="M254.13,175c0,.21-.28.36-.62.35s-.6-.18-.6-.38.28-.36.62-.35S254.14,174.84,254.13,175Z"></path><path d="M253.46,175.86a2.82,2.82,0,0,1-1-.47c-.48-.52.27-.83.67-.95,0,0,0,0,0,0-.44,0-1.11.31-1,.86s.83.78,1.29.7A.05.05,0,0,0,253.46,175.86Z"></path><path d="M244.37,180.73c0,.16-.22.28-.48.26s-.47-.15-.46-.3.22-.28.49-.26S244.38,180.58,244.37,180.73Z"></path><path d="M243.84,181.35a2.21,2.21,0,0,1-.73-.38c-.36-.41.22-.64.54-.72,0,0,0,0,0,0-.35,0-.87.22-.81.65s.63.61,1,.56A0,0,0,0,0,243.84,181.35Z"></path><path d="M255.69,180.93c0,.25-.26.51-.67.58s-.78-.07-.82-.31.25-.51.66-.58S255.65,180.69,255.69,180.93Z"></path><path d="M254.21,180.52s0,0,0,0c-.39.3-.94.78-.55,1.31a1.19,1.19,0,0,0,1.48.23,0,0,0,0,0,0-.08,2.05,2.05,0,0,1-1.07-.13C253.39,181.5,253.84,180.85,254.21,180.52Z"></path></g><path d="M444.5,108l2.2-3c.1-.14-.39-1-.23-1.18s2.18.65,2,1c-.13.24-.82.3-.89.41s-1.52,3.56-1.52,3.56Z" style="fill:#EA4659"></path><path d="M446.66,103.88a4.39,4.39,0,0,0,1.66.82"></path><path d="M444.5,108l2.2-3c.1-.14-.39-1-.23-1.18s2.18.65,2,1c-.13.24-.82.3-.89.41s-1.52,3.56-1.52,3.56Z" style="opacity:0.1"></path><path d="M439.36,108.14s-.56-3.54-.59-3.7-1-.42-1-.67,2-1.08,2.13-.65c.08.26-.36.8-.34.92s1.45,3.59,1.45,3.59Z" style="fill:#EA4659"></path><path d="M438,103.68a4.42,4.42,0,0,0,1.76-.59"></path><path d="M439.36,108.14s-.56-3.54-.59-3.7-1-.42-1-.67,2-1.08,2.13-.65c.08.26-.36.8-.34.92s1.45,3.59,1.45,3.59Z" style="opacity:0.1"></path><path d="M435.81,111.86s-2.89-2.11-3-2.2-1,.39-1.17.23.64-2.18,1-2,.31.82.42.89,3.56,1.52,3.56,1.52Z" style="fill:#EA4659"></path><path d="M431.67,109.7a4.38,4.38,0,0,0,.82-1.67"></path><path d="M435.81,111.86s-2.89-2.11-3-2.2-1,.39-1.17.23.64-2.18,1-2,.31.82.42.89,3.56,1.52,3.56,1.52Z" style="opacity:0.1"></path><path d="M435.94,117l-3.71.58c-.16,0-.42,1-.66,1s-1.09-2-.66-2.14c.27-.08.8.37.93.34s3.59-1.44,3.59-1.44Z" style="fill:#EA4659"></path><path d="M431.48,118.4a4.33,4.33,0,0,0-.6-1.76"></path><path d="M435.94,117l-3.71.58c-.16,0-.42,1-.66,1s-1.09-2-.66-2.14c.27-.08.8.37.93.34s3.59-1.44,3.59-1.44Z" style="opacity:0.1"></path><path d="M439.65,120.54l-2.2,3c-.1.13.39,1,.24,1.17s-2.19-.64-2-1c.13-.24.82-.3.9-.41s1.51-3.56,1.51-3.56Z" style="fill:#EA4659"></path><path d="M437.49,124.68a4.27,4.27,0,0,0-1.66-.81"></path><path d="M439.65,120.54l-2.2,3c-.1.13.39,1,.24,1.17s-2.19-.64-2-1c.13-.24.82-.3.9-.41s1.51-3.56,1.51-3.56Z" style="opacity:0.1"></path><path d="M444.79,120.42s.56,3.54.59,3.7,1,.43,1,.67-2,1.09-2.14.65c-.08-.26.36-.79.34-.92s-1.45-3.59-1.45-3.59Z" style="fill:#EA4659"></path><path d="M446.19,124.88a4.3,4.3,0,0,0-1.75.6"></path><path d="M444.79,120.42s.56,3.54.59,3.7,1,.43,1,.67-2,1.09-2.14.65c-.08-.26.36-.79.34-.92s-1.45-3.59-1.45-3.59Z" style="opacity:0.1"></path><path d="M448.34,116.7l3,2.21c.14.1,1-.39,1.18-.24s-.65,2.19-1.05,2c-.24-.12-.31-.82-.42-.89s-3.56-1.51-3.56-1.51Z" style="fill:#EA4659"></path><path d="M452.48,118.87a4.3,4.3,0,0,0-.82,1.66"></path><path d="M448.34,116.7l3,2.21c.14.1,1-.39,1.18-.24s-.65,2.19-1.05,2c-.24-.12-.31-.82-.42-.89s-3.56-1.51-3.56-1.51Z" style="opacity:0.1"></path><path d="M448.22,111.57l3.7-.59c.17,0,.42-1,.66-1s1.09,2,.66,2.14c-.26.08-.8-.37-.93-.34s-3.59,1.45-3.59,1.45Z" style="fill:#EA4659"></path><path d="M452.67,110.17a4.3,4.3,0,0,0,.6,1.75"></path><path d="M448.22,111.57l3.7-.59c.17,0,.42-1,.66-1s1.09,2,.66,2.14c-.26.08-.8-.37-.93-.34s-3.59,1.45-3.59,1.45Z" style="opacity:0.1"></path><path d="M443.72,107.47l2.33-4.6c.08-.15-.51-.94-.38-1.15s2.26.39,2.1.81c-.1.26-.78.4-.84.52s-1.58,5-1.58,5Z" style="fill:#EA4659"></path><path d="M445.88,101.77a4.22,4.22,0,0,0,1.75.61"></path><path d="M438.52,108.38l-1.61-4.89c0-.17-1-.31-1.07-.55s1.86-1.32,2.05-.91-.27.84-.23,1,2.45,4.68,2.45,4.68Z" style="fill:#EA4659"></path><path d="M436,102.83a4.38,4.38,0,0,0,1.68-.8"></path><path d="M435.49,112.71l-4.6-2.32c-.15-.09-.94.5-1.15.37s.39-2.25.81-2.09c.26.1.4.78.52.84s5.05,1.58,5.05,1.58Z" style="fill:#EA4659"></path><path d="M429.79,110.56a4.22,4.22,0,0,0,.61-1.76"></path><path d="M436.4,117.92s-4.73,1.56-4.89,1.6-.31,1-.55,1.08-1.32-1.87-.91-2c.26-.11.84.27,1,.22s4.68-2.45,4.68-2.45Z" style="fill:#EA4659"></path><path d="M430.85,120.43a4.3,4.3,0,0,0-.81-1.68"></path><path d="M440.73,121l-2.32,4.6c-.09.15.5.94.37,1.14s-2.26-.38-2.09-.8c.1-.26.78-.41.84-.53s1.58-5,1.58-5Z" style="fill:#EA4659"></path><path d="M438.58,126.65a4.34,4.34,0,0,0-1.76-.62"></path><path d="M445.94,120s1.56,4.74,1.6,4.9,1,.31,1.08.54-1.87,1.33-2.05.91c-.12-.25.27-.83.22-1s-2.45-4.68-2.45-4.68Z" style="fill:#EA4659"></path><path d="M448.44,125.59a4.36,4.36,0,0,0-1.67.8"></path><path d="M449,115.71l4.6,2.32c.15.08.94-.51,1.14-.38s-.38,2.26-.81,2.1c-.25-.1-.4-.78-.52-.84s-5-1.58-5-1.58Z" style="fill:#EA4659"></path><path d="M454.67,117.86a4.33,4.33,0,0,0-.62,1.75"></path><path d="M448.05,110.5l4.9-1.61c.16,0,.31-1,.54-1.07s1.33,1.86.91,2.05c-.25.11-.83-.27-1-.23s-4.68,2.45-4.68,2.45Z" style="fill:#EA4659"></path><path d="M453.61,108a4.38,4.38,0,0,0,.8,1.68"></path><path d="M450.49,116.11a8.42,8.42,0,0,1-10,6.57,8.05,8.05,0,0,1-6.59-10.22,8.53,8.53,0,0,1,10.56-6.72,7.85,7.85,0,0,1,2.94,1.32A8.8,8.8,0,0,1,450.49,116.11Z" style="fill:#EA4659"></path><path d="M450.49,116.11a8.42,8.42,0,0,1-10,6.57,8.64,8.64,0,0,1-6.33-5c2,1.6,6.2,4.16,10.39,2.18,5.79-2.75,5.4-9.38,2.85-12.83A8.8,8.8,0,0,1,450.49,116.11Z" style="opacity:0.1"></path><path d="M442.87,107.94h-2s0-.08,0-.22c.12-.8.54-3.52.56-3.68s-.92-.78-.87-1.05.55-.24,1.12-.29,1.43,0,1.43.29-.67.74-.68.89S442.87,107.94,442.87,107.94Z" style="fill:#EA4659"></path><path d="M440.86,103a4.88,4.88,0,0,0,2.11-.07Z"></path><path d="M440.93,107.72c.12-.8.54-3.52.56-3.68s-.92-.78-.87-1.05.55-.24,1.12-.29a1.47,1.47,0,0,0-.53.24l0,0c0,.07,0,.14.05.22s.61.46.62.67S441,107.61,440.93,107.72Z" style="opacity:0.1"></path><path d="M438.14,109l-1.39,1.4-.06-.07v0l-2.27-3.09c-.12-.15-1.21.1-1.36-.13s.61-1.13,1.19-1.59c.26-.22.49-.33.61-.21s.06,1,.15,1.11S438.14,109,438.14,109Z" style="fill:#EA4659"></path><path d="M433.19,106.91a5,5,0,0,0,1.44-1.54Z"></path><path d="M436.68,110.32l-2.27-3.09c-.12-.15-1.21.1-1.36-.13s.61-1.13,1.19-1.59a3.43,3.43,0,0,0-.53.84,1,1,0,0,0-.06.19c0,.09,0,.15.05.17.23.07.71-.1.93,0A41.21,41.21,0,0,1,436.68,110.32Z" style="opacity:0.1"></path><path d="M435.56,113.11v2h0l-3.89-.6c-.18,0-.78.92-1,.87a3.41,3.41,0,0,1-.11-2.5.16.16,0,0,1,.11,0c.31,0,.74.67.89.68S435.56,113.11,435.56,113.11Z" style="fill:#EA4659"></path><path d="M430.56,115.13a5,5,0,0,0-.06-2.11Z"></path><path d="M435.54,115.09l-3.89-.6c-.18,0-.78.92-1,.87a3.41,3.41,0,0,1-.11-2.5,1.91,1.91,0,0,0,.05,1.54,1.14,1.14,0,0,0,.09.16c.06.08.12.13.16.12.22-.05.57-.51.88-.49S435.34,115,435.54,115.09Z" style="opacity:0.1"></path><path d="M434.84,121.58c-.11.08,0,.68,0,1.06a.44.44,0,0,1-.1.3c-.23.15-2.16-1.44-1.8-1.8s1-.06,1.11-.16,1.1-1.29,1.82-2.18h0l.77-1,1.4,1.4Z" style="fill:#EA4659"></path><path d="M434.52,122.8a5,5,0,0,0-1.54-1.45Z"></path><path d="M434.81,122.64a.44.44,0,0,1-.1.3c-.23.15-2.16-1.44-1.8-1.8s1-.06,1.11-.16,1.1-1.29,1.82-2.18a18,18,0,0,1-1.59,2.46c-.18.08-.67.08-.72.32a.27.27,0,0,0,0,.16,3.05,3.05,0,0,0,.36.51,3.15,3.15,0,0,0,.48.44l.07,0a.26.26,0,0,0,.22.06A.34.34,0,0,0,434.81,122.64Z" style="opacity:0.1"></path><path d="M443,125.39c0,.06-.17.12-.4.17-.71.17-2.14.22-2.14-.17s.66-.75.67-.9-.17-2.07-.29-3.21h0c-.05-.49-.09-.84-.09-.84h2s-.57,3.71-.59,3.9S443,125.11,443,125.39Z" style="fill:#EA4659"></path><path d="M442.74,125.42a4.88,4.88,0,0,0-2.11.07Z"></path><path d="M442.57,125.56c-.71.17-2.14.22-2.14-.17s.66-.75.67-.9-.17-2.07-.29-3.21c.22,1.06.63,3.13.6,3.22s-.53.65-.4.83l.06,0a.76.76,0,0,0,.29.09A6.31,6.31,0,0,0,442.57,125.56Z" style="opacity:0.1"></path><path d="M449.9,122.33c-.43.5-1,.93-1.15.74s-.06-1-.16-1.11-2.32-1.94-3-2.46h0l-.18-.14,1.4-1.4s2.22,3,2.34,3.18,1.2-.1,1.36.13S450.3,121.88,449.9,122.33Z" style="fill:#EA4659"></path><path d="M450.41,121.46A5,5,0,0,0,449,123Z"></path><path d="M449.9,122.33c-.43.5-1,.93-1.15.74s-.06-1-.16-1.11-2.32-1.94-3-2.46h0a39.57,39.57,0,0,1,3.33,2.28c0,.18,0,.88.18.91l.14,0A2.83,2.83,0,0,0,449.9,122.33Z" style="opacity:0.1"></path><path d="M453,115.56c-.17,0-.37-.19-.54-.37s-.29-.31-.36-.31c-.25,0-4.06.38-4.06.38v-2l.8.12h0l3.09.47c.19,0,.79-.92,1.06-.87S453.51,115.56,453,115.56Z" style="fill:#EA4659"></path><path d="M453,113.24a4.88,4.88,0,0,0,.07,2.11Z"></path><path d="M453,115.56c-.17,0-.37-.19-.54-.37a3.7,3.7,0,0,0,.48,0,.1.1,0,0,0,.09-.06.23.23,0,0,0,.06-.12,2.16,2.16,0,0,0,0-.94,2.34,2.34,0,0,0-.09-.28h0c0-.07-.08-.1-.12-.1-.25,0-.7.53-1.06.48s-2-.52-2.94-.78l3.09.47c.19,0,.79-.92,1.06-.87S453.51,115.56,453,115.56Z" style="opacity:0.1"></path><path d="M450.69,107.23c-.22.23-1,.06-1.11.16s-2.61,3.14-2.61,3.14l-1.4-1.4.31-.22h0c.78-.56,2.75-2,2.87-2.11s-.09-1.2.14-1.36.68.3,1.15.74h0C450.5,106.59,450.86,107.06,450.69,107.23Z" style="fill:#EA4659"></path><path d="M449.08,105.57a4.88,4.88,0,0,0,1.53,1.45Z"></path><path d="M450,106.17a2,2,0,0,0-.56-.22l-.12,0c-.12,0-.2,0-.21.16,0,.29.13.82,0,1s-3.15,1.76-3.27,1.82c.78-.56,2.75-2,2.87-2.11s-.09-1.2.14-1.36S449.57,105.73,450,106.17Z" style="opacity:0.1"></path><g style="opacity:0.1"><path d="M439.41,119.48c-.09.18-.4.22-.71.08s-.48-.41-.4-.59.4-.22.71-.08S439.49,119.29,439.41,119.48Z"></path><path d="M439.2,120.14a2.15,2.15,0,0,1-1.21-.58.64.64,0,0,1-.19-.71c.13-.33.43-.32.73-.35,0,0,0,0,0,0-.52-.06-1.13.15-1,.78s1,1,1.68,1A.06.06,0,0,0,439.2,120.14Z"></path><path d="M440.57,109c0,.2-.32.41-.76.47s-.84,0-.86-.25.31-.42.76-.48S440.54,108.77,440.57,109Z"></path><path d="M439.41,109.87a1.77,1.77,0,0,1-.67-.22.5.5,0,0,1-.13-.73,1.5,1.5,0,0,1,1.09-.59s0,0,0,0c-.51,0-1.27.28-1.44.82-.22.71.65.85,1.15.84C439.46,110,439.45,109.88,439.41,109.87Z"></path><path d="M446.87,111.52c0,.2-.28.36-.62.35s-.6-.18-.6-.38.28-.36.62-.36S446.88,111.31,446.87,111.52Z"></path><path d="M446.2,112.33a2.52,2.52,0,0,1-.94-.47c-.48-.51.26-.83.66-1a0,0,0,0,0,0,0c-.44,0-1.11.31-1,.86s.83.77,1.29.69A.05.05,0,0,0,446.2,112.33Z"></path><path d="M437.11,117.21c0,.16-.22.27-.48.26s-.47-.15-.46-.31.23-.27.49-.26S437.12,117.05,437.11,117.21Z"></path><path d="M436.58,117.83a1.94,1.94,0,0,1-.72-.39c-.37-.4.21-.63.53-.72,0,0,0,0,0,0-.34,0-.87.22-.81.65s.63.62,1,.57A0,0,0,0,0,436.58,117.83Z"></path><path d="M448.43,117.41c.05.25-.25.51-.67.58s-.78-.07-.82-.32.25-.51.67-.58S448.39,117.16,448.43,117.41Z"></path><path d="M447,117s0,0,0,0c-.39.29-.94.77-.55,1.3a1.18,1.18,0,0,0,1.48.23s0-.08,0-.08a2,2,0,0,1-1.07-.13C446.13,118,446.58,117.32,447,117Z"></path></g><path d="M150.62,226.6l2.2-3c.1-.13-.39-1-.24-1.17s2.19.64,2,1.05c-.13.24-.83.3-.9.41s-1.51,3.56-1.51,3.56Z" style="fill:#EA4659"></path><path d="M152.78,222.45a4.24,4.24,0,0,0,1.66.82" style="fill:#263238"></path><path d="M150.62,226.6l2.2-3c.1-.13-.39-1-.24-1.17s2.19.64,2,1.05c-.13.24-.83.3-.9.41s-1.51,3.56-1.51,3.56Z" style="opacity:0.1"></path><path d="M145.48,226.72s-.56-3.54-.59-3.71-1-.42-1-.66,2-1.09,2.14-.65c.08.26-.37.79-.34.92s1.45,3.59,1.45,3.59Z" style="fill:#EA4659"></path><path d="M144.08,222.26a4.3,4.3,0,0,0,1.75-.6" style="fill:#263238"></path><path d="M145.48,226.72s-.56-3.54-.59-3.71-1-.42-1-.66,2-1.09,2.14-.65c.08.26-.37.79-.34.92s1.45,3.59,1.45,3.59Z" style="opacity:0.1"></path><path d="M141.93,230.44l-3-2.21c-.14-.1-1,.39-1.18.24s.65-2.19,1.05-2c.24.12.3.82.41.89s3.57,1.51,3.57,1.51Z" style="fill:#EA4659"></path><path d="M137.79,228.27a4.3,4.3,0,0,0,.82-1.66" style="fill:#263238"></path><path d="M141.93,230.44l-3-2.21c-.14-.1-1,.39-1.18.24s.65-2.19,1.05-2c.24.12.3.82.41.89s3.57,1.51,3.57,1.51Z" style="opacity:0.1"></path><path d="M142.05,235.57l-3.7.59c-.17,0-.42,1-.66,1s-1.09-2-.66-2.14c.26-.08.8.37.93.34s3.58-1.45,3.58-1.45Z" style="fill:#EA4659"></path><path d="M137.59,237a4.23,4.23,0,0,0-.59-1.75" style="fill:#263238"></path><path d="M142.05,235.57l-3.7.59c-.17,0-.42,1-.66,1s-1.09-2-.66-2.14c.26-.08.8.37.93.34s3.58-1.45,3.58-1.45Z" style="opacity:0.1"></path><path d="M145.77,239.12l-2.2,3c-.1.14.39,1,.23,1.18s-2.18-.65-2-1.05c.13-.24.82-.3.89-.41s1.52-3.56,1.52-3.56Z" style="fill:#EA4659"></path><path d="M143.61,243.26a4.39,4.39,0,0,0-1.66-.82" style="fill:#263238"></path><path d="M145.77,239.12l-2.2,3c-.1.14.39,1,.23,1.18s-2.18-.65-2-1.05c.13-.24.82-.3.89-.41s1.52-3.56,1.52-3.56Z" style="opacity:0.1"></path><path d="M150.91,239s.56,3.54.58,3.7,1,.42,1,.67-2,1.08-2.13.65c-.08-.26.36-.8.33-.92s-1.44-3.59-1.44-3.59Z" style="fill:#EA4659"></path><path d="M152.31,243.46a4.26,4.26,0,0,0-1.76.59" style="fill:#263238"></path><path d="M150.91,239s.56,3.54.58,3.7,1,.42,1,.67-2,1.08-2.13.65c-.08-.26.36-.8.33-.92s-1.44-3.59-1.44-3.59Z" style="opacity:0.1"></path><path d="M154.45,235.28l3,2.2c.13.1,1-.39,1.17-.23s-.64,2.18-1,2c-.25-.13-.31-.82-.42-.89s-3.56-1.52-3.56-1.52Z" style="fill:#EA4659"></path><path d="M158.6,237.44a4.24,4.24,0,0,0-.82,1.66" style="fill:#263238"></path><path d="M154.45,235.28l3,2.2c.13.1,1-.39,1.17-.23s-.64,2.18-1,2c-.25-.13-.31-.82-.42-.89s-3.56-1.52-3.56-1.52Z" style="opacity:0.1"></path><path d="M154.33,230.14l3.71-.58c.16,0,.42-1,.66-1s1.09,2,.65,2.13c-.26.09-.79-.36-.92-.33s-3.59,1.44-3.59,1.44Z" style="fill:#EA4659"></path><path d="M158.79,228.74a4.33,4.33,0,0,0,.6,1.76" style="fill:#263238"></path><path d="M154.33,230.14l3.71-.58c.16,0,.42-1,.66-1s1.09,2,.65,2.13c-.26.09-.79-.36-.92-.33s-3.59,1.44-3.59,1.44Z" style="opacity:0.1"></path><path d="M149.84,226s2.25-4.45,2.33-4.59-.51-.94-.38-1.15,2.26.38,2.1.81c-.1.26-.79.4-.84.52s-1.58,5-1.58,5Z" style="fill:#EA4659"></path><path d="M152,220.34a4.33,4.33,0,0,0,1.75.62" style="fill:#263238"></path><path d="M144.64,227s-1.56-4.73-1.61-4.9-1-.3-1.08-.54,1.87-1.33,2.06-.91c.11.25-.27.84-.23,1s2.45,4.68,2.45,4.68Z" style="fill:#EA4659"></path><path d="M142.13,221.41a4.36,4.36,0,0,0,1.68-.81" style="fill:#263238"></path><path d="M141.6,231.29,137,229c-.14-.08-.93.51-1.14.38s.38-2.26.81-2.1c.26.1.4.79.52.85s5,1.57,5,1.57Z" style="fill:#EA4659"></path><path d="M135.9,229.14a4.4,4.4,0,0,0,.62-1.76" style="fill:#263238"></path><path d="M142.52,236.49s-4.73,1.57-4.9,1.61-.3,1-.54,1.08-1.33-1.87-.91-2.06c.25-.11.84.27,1,.23s4.68-2.45,4.68-2.45Z" style="fill:#EA4659"></path><path d="M137,239a4.36,4.36,0,0,0-.81-1.68" style="fill:#263238"></path><path d="M146.85,239.53l-2.33,4.6c-.08.14.51.93.38,1.14s-2.26-.38-2.1-.81c.1-.25.79-.4.85-.52s1.57-5,1.57-5Z" style="fill:#EA4659"></path><path d="M144.7,245.23a4.4,4.4,0,0,0-1.76-.62" style="fill:#263238"></path><path d="M152.05,238.61l1.61,4.9c.05.16,1,.3,1.08.54s-1.87,1.33-2.06.91c-.11-.25.27-.84.23-1s-2.45-4.68-2.45-4.68Z" style="fill:#EA4659"></path><path d="M154.56,244.16a4.36,4.36,0,0,0-1.68.81" style="fill:#263238"></path><path d="M155.09,234.28l4.6,2.33c.14.08.93-.51,1.14-.38s-.38,2.26-.81,2.1c-.25-.1-.4-.79-.52-.84s-5-1.58-5-1.58Z" style="fill:#EA4659"></path><path d="M160.79,236.44a4.33,4.33,0,0,0-.62,1.75" style="fill:#263238"></path><path d="M154.17,229.08l4.9-1.61c.16-.05.3-1,.54-1.08s1.33,1.87.91,2.06c-.25.11-.84-.27-1-.23s-4.68,2.45-4.68,2.45Z" style="fill:#EA4659"></path><path d="M159.72,226.57a4.36,4.36,0,0,0,.81,1.68" style="fill:#263238"></path><path d="M156.61,234.69a8.42,8.42,0,0,1-10,6.56,8.7,8.7,0,1,1,4-16.94,8.08,8.08,0,0,1,2.94,1.32A8.84,8.84,0,0,1,156.61,234.69Z" style="fill:#EA4659"></path><path d="M156.61,234.69a8.42,8.42,0,0,1-10,6.56,8.61,8.61,0,0,1-6.33-5c2,1.61,6.2,4.17,10.39,2.19,5.8-2.76,5.4-9.38,2.86-12.84A8.84,8.84,0,0,1,156.61,234.69Z" style="opacity:0.1"></path><path d="M149,226.52h-2l0-.22c.13-.8.54-3.52.57-3.68s-.92-.79-.87-1.06c0-.12.55-.24,1.11-.28s1.43,0,1.43.28-.66.75-.67.9S149,226.52,149,226.52Z" style="fill:#EA4659"></path><path d="M147,221.52a4.82,4.82,0,0,0,2.11-.06Z" style="fill:#263238"></path><path d="M147,226.3c.13-.8.54-3.52.57-3.68s-.92-.79-.87-1.06c0-.12.55-.24,1.11-.28a1.43,1.43,0,0,0-.52.23l-.05.06c0,.07,0,.14.05.22s.62.45.63.66S147.08,226.19,147,226.3Z" style="opacity:0.1"></path><path d="M144.26,227.59l-1.4,1.4-.05-.08h0l-2.27-3.09c-.12-.16-1.21.09-1.36-.14s.61-1.12,1.19-1.59c.26-.21.49-.32.61-.21s.05,1,.15,1.11S144.26,227.59,144.26,227.59Z" style="fill:#EA4659"></path><path d="M139.3,225.48a4.84,4.84,0,0,0,1.45-1.54Z" style="fill:#263238"></path><path d="M142.8,228.9l-2.27-3.09c-.12-.16-1.21.09-1.36-.14s.61-1.12,1.19-1.59a3.36,3.36,0,0,0-.53.85.82.82,0,0,0-.06.19c0,.09,0,.15,0,.17.22.07.71-.1.93,0A41.21,41.21,0,0,1,142.8,228.9Z" style="opacity:0.1"></path><path d="M141.67,231.69v2h0l-3.89-.59c-.19,0-.78.92-1.05.87a3.43,3.43,0,0,1-.11-2.51.21.21,0,0,1,.11,0c.31,0,.74.66.89.68S141.67,231.69,141.67,231.69Z" style="fill:#EA4659"></path><path d="M136.68,233.7a4.88,4.88,0,0,0-.07-2.11Z" style="fill:#263238"></path><path d="M141.66,233.66l-3.89-.59c-.19,0-.78.92-1.05.87a3.43,3.43,0,0,1-.11-2.51,1.93,1.93,0,0,0,0,1.55,1.14,1.14,0,0,0,.09.16c.06.08.11.12.16.12.22,0,.56-.51.88-.49S141.45,233.61,141.66,233.66Z" style="opacity:0.1"></path><path d="M141,240.15c-.11.08,0,.69,0,1.07a.36.36,0,0,1-.09.29c-.23.15-2.17-1.43-1.8-1.8.22-.22,1-.06,1.11-.15s1.1-1.3,1.82-2.18h0l.77-1,1.4,1.4Z" style="fill:#EA4659"></path><path d="M140.64,241.37a5,5,0,0,0-1.54-1.44Z" style="fill:#263238"></path><path d="M140.92,241.22a.36.36,0,0,1-.09.29c-.23.15-2.17-1.43-1.8-1.8.22-.22,1-.06,1.11-.15s1.1-1.3,1.82-2.18a19,19,0,0,1-1.59,2.46c-.18.08-.67.08-.72.32a.22.22,0,0,0,0,.16,2.53,2.53,0,0,0,.36.5,2.47,2.47,0,0,0,.48.45l.07,0c.09.06.17.08.21.05S140.89,241.29,140.92,241.22Z" style="opacity:0.1"></path><path d="M149.09,244c0,.07-.17.13-.4.18-.72.17-2.14.22-2.15-.18s.67-.75.68-.89-.17-2.08-.29-3.22h0c-.05-.49-.09-.84-.09-.84h2l-.6,3.9C148.2,243.09,149.15,243.69,149.09,244Z" style="fill:#EA4659"></path><path d="M148.86,244a5,5,0,0,0-2.11.06Z" style="fill:#263238"></path><path d="M148.69,244.14c-.72.17-2.14.22-2.15-.18s.67-.75.68-.89-.17-2.08-.29-3.22c.21,1.07.62,3.13.6,3.22s-.54.66-.4.84l.06,0a.77.77,0,0,0,.28.09A6.4,6.4,0,0,0,148.69,244.14Z" style="opacity:0.1"></path><path d="M156,240.91c-.44.49-1,.93-1.16.74s-.05-1-.15-1.11-2.33-1.95-3-2.46h0l-.17-.13,1.4-1.4,2.33,3.18c.12.15,1.21-.1,1.37.13S156.42,240.46,156,240.91Z" style="fill:#EA4659"></path><path d="M156.53,240a5,5,0,0,0-1.45,1.54Z" style="fill:#263238"></path><path d="M156,240.91c-.44.49-1,.93-1.16.74s-.05-1-.15-1.11-2.33-1.95-3-2.46h0s3.31,2.1,3.34,2.28,0,.89.18.91a.24.24,0,0,0,.14,0A2.83,2.83,0,0,0,156,240.91Z" style="opacity:0.1"></path><path d="M159.11,234.13c-.16,0-.36-.19-.53-.36s-.29-.31-.36-.31c-.26,0-4.06.37-4.06.37v-2l.8.12h0l3.09.47c.19,0,.78-.92,1.05-.86S159.63,234.13,159.11,234.13Z" style="fill:#EA4659"></path><path d="M159.15,231.82a4.88,4.88,0,0,0,.07,2.11Z" style="fill:#263238"></path><path d="M159.11,234.13c-.16,0-.36-.19-.53-.36a2.51,2.51,0,0,0,.48,0,.11.11,0,0,0,.09-.05l.06-.12a2.37,2.37,0,0,0,0-1,1.18,1.18,0,0,0-.1-.27h0c0-.06-.07-.1-.11-.1-.25,0-.7.54-1.06.49s-2-.52-2.94-.79l3.09.47c.19,0,.78-.92,1.05-.86S159.63,234.13,159.11,234.13Z" style="opacity:0.1"></path><path d="M156.8,225.81c-.22.22-1,.06-1.11.15s-2.6,3.14-2.6,3.14l-1.4-1.39.31-.23h0l2.87-2.11c.15-.11-.1-1.21.13-1.36s.69.3,1.16.74h0C156.61,225.17,157,225.63,156.8,225.81Z" style="fill:#EA4659"></path><path d="M155.19,224.15a5,5,0,0,0,1.54,1.45Z" style="fill:#263238"></path><path d="M156.16,224.75a1.68,1.68,0,0,0-.57-.22.25.25,0,0,0-.12,0,.19.19,0,0,0-.21.15c0,.29.13.82,0,1s-3.14,1.77-3.26,1.83l2.87-2.11c.15-.11-.1-1.21.13-1.36S155.69,224.31,156.16,224.75Z" style="opacity:0.1"></path><g style="opacity:0.1"><path d="M145.53,238.06c-.09.18-.41.21-.71.07s-.49-.4-.4-.59.4-.21.7-.07S145.61,237.87,145.53,238.06Z"></path><path d="M145.32,238.71a2.07,2.07,0,0,1-1.21-.57.63.63,0,0,1-.19-.71c.12-.33.43-.32.73-.35a0,0,0,0,0,0,0c-.51-.06-1.12.16-1,.78s1,1,1.69,1C145.37,238.83,145.39,238.72,145.32,238.71Z"></path><path d="M146.69,227.55c0,.2-.32.41-.77.47s-.83-.06-.86-.26.32-.41.77-.47S146.66,227.34,146.69,227.55Z"></path><path d="M145.53,228.44a1.7,1.7,0,0,1-.67-.21.5.5,0,0,1-.14-.73,1.52,1.52,0,0,1,1.1-.59s0,0,0,0c-.51,0-1.27.27-1.43.82-.22.71.65.84,1.15.84A0,0,0,0,0,145.53,228.44Z"></path><path d="M153,230.09c0,.21-.28.36-.62.36s-.61-.18-.6-.39.28-.36.62-.35S153,229.89,153,230.09Z"></path><path d="M152.32,230.91a2.73,2.73,0,0,1-.95-.47c-.48-.52.26-.83.67-.95,0,0,0,0,0,0-.44,0-1.11.31-1,.86s.83.78,1.29.7A.05.05,0,0,0,152.32,230.91Z"></path><path d="M143.23,235.79c0,.15-.22.27-.49.26s-.46-.16-.45-.31.22-.28.48-.26S143.24,235.63,143.23,235.79Z"></path><path d="M142.69,236.4A2,2,0,0,1,142,236c-.36-.41.22-.64.54-.72,0,0,0,0,0,0-.34,0-.86.22-.8.65s.63.61,1,.56C142.73,236.48,142.73,236.42,142.69,236.4Z"></path><path d="M154.55,236c0,.24-.26.5-.67.58s-.78-.08-.83-.32.26-.51.67-.58S154.51,235.74,154.55,236Z"></path><path d="M153.07,235.57s0,0,0,0c-.4.3-.94.78-.55,1.31a1.18,1.18,0,0,0,1.47.23,0,0,0,0,0,0-.08,2.05,2.05,0,0,1-1.07-.13C152.25,236.55,152.7,235.9,153.07,235.57Z"></path></g><path d="M585.77,150.1l6.38,4.64c.29.21,2.08-.82,2.48-.5s-1.36,4.6-2.21,4.15c-.51-.27-.64-1.72-.87-1.88-.4-.26-7.49-3.18-7.49-3.18Z" style="fill:#EA4659"></path><path d="M594.49,154.65a9.16,9.16,0,0,0-1.73,3.5" style="fill:#263238"></path><path d="M585.77,150.1l6.38,4.64c.29.21,2.08-.82,2.48-.5s-1.36,4.6-2.21,4.15c-.51-.27-.64-1.72-.87-1.88-.4-.26-7.49-3.18-7.49-3.18Z" style="opacity:0.1"></path><path d="M585.51,139.29l7.8-1.24c.35-.05.89-2.05,1.39-2.1s2.29,4.22,1.38,4.5c-.55.17-1.67-.77-1.94-.71-.47.09-7.56,3-7.56,3Z" style="fill:#EA4659"></path><path d="M594.9,136.34a9.18,9.18,0,0,0,1.25,3.7" style="fill:#263238"></path><path d="M585.51,139.29l7.8-1.24c.35-.05.89-2.05,1.39-2.1s2.29,4.22,1.38,4.5c-.55.17-1.67-.77-1.94-.71-.47.09-7.56,3-7.56,3Z" style="opacity:0.1"></path><path d="M577.69,131.82l4.64-6.38c.2-.28-.83-2.08-.5-2.47s4.6,1.36,4.15,2.2c-.27.51-1.73.64-1.88.87-.26.4-3.19,7.5-3.19,7.5Z" style="fill:#EA4659"></path><path d="M582.24,123.11a9,9,0,0,0,3.5,1.72" style="fill:#263238"></path><path d="M577.69,131.82l4.64-6.38c.2-.28-.83-2.08-.5-2.47s4.6,1.36,4.15,2.2c-.27.51-1.73.64-1.88.87-.26.4-3.19,7.5-3.19,7.5Z" style="opacity:0.1"></path><path d="M566.88,132.08s-1.18-7.44-1.24-7.79-2-.89-2.1-1.4,4.22-2.29,4.5-1.38c.17.55-.77,1.68-.71,1.95.09.46,3,7.55,3,7.55Z" style="fill:#EA4659"></path><path d="M563.93,122.7a9,9,0,0,0,3.69-1.26" style="fill:#263238"></path><path d="M566.88,132.08s-1.18-7.44-1.24-7.79-2-.89-2.1-1.4,4.22-2.29,4.5-1.38c.17.55-.77,1.68-.71,1.95.09.46,3,7.55,3,7.55Z" style="opacity:0.1"></path><path d="M559.41,139.9,553,135.27c-.29-.21-2.08.82-2.48.5s1.37-4.6,2.21-4.16c.51.27.64,1.73.87,1.88.4.26,7.5,3.19,7.5,3.19Z" style="fill:#EA4659"></path><path d="M550.7,135.35a9.06,9.06,0,0,0,1.72-3.49" style="fill:#263238"></path><path d="M559.41,139.9,553,135.27c-.29-.21-2.08.82-2.48.5s1.37-4.6,2.21-4.16c.51.27.64,1.73.87,1.88.4.26,7.5,3.19,7.5,3.19Z" style="opacity:0.1"></path><path d="M559.67,150.72l-7.8,1.23c-.35.06-.88,2.05-1.39,2.1s-2.29-4.21-1.38-4.49c.55-.17,1.67.76,1.95.71.46-.1,7.55-3.05,7.55-3.05Z" style="fill:#EA4659"></path><path d="M550.29,153.66A9.19,9.19,0,0,0,549,150" style="fill:#263238"></path><path d="M559.67,150.72l-7.8,1.23c-.35.06-.88,2.05-1.39,2.1s-2.29-4.21-1.38-4.49c.55-.17,1.67.76,1.95.71.46-.1,7.55-3.05,7.55-3.05Z" style="opacity:0.1"></path><path d="M567.49,158.18l-4.64,6.38c-.2.29.83,2.08.5,2.48s-4.6-1.36-4.15-2.21c.27-.51,1.73-.64,1.88-.87.26-.4,3.19-7.49,3.19-7.49Z" style="fill:#EA4659"></path><path d="M562.94,166.9a9.16,9.16,0,0,0-3.5-1.73" style="fill:#263238"></path><path d="M567.49,158.18l-4.64,6.38c-.2.29.83,2.08.5,2.48s-4.6-1.36-4.15-2.21c.27-.51,1.73-.64,1.88-.87.26-.4,3.19-7.49,3.19-7.49Z" style="opacity:0.1"></path><path d="M578.3,157.93s1.18,7.44,1.24,7.79,2.05.89,2.1,1.4-4.21,2.29-4.5,1.37c-.17-.55.77-1.67.72-1.94-.1-.47-3.05-7.55-3.05-7.55Z" style="fill:#EA4659"></path><path d="M581.25,167.31a9.11,9.11,0,0,0-3.69,1.25" style="fill:#263238"></path><path d="M578.3,157.93s1.18,7.44,1.24,7.79,2.05.89,2.1,1.4-4.21,2.29-4.5,1.37c-.17-.55.77-1.67.72-1.94-.1-.47-3.05-7.55-3.05-7.55Z" style="opacity:0.1"></path><path d="M586.93,148.47s9.37,4.73,9.68,4.9,2-1.07,2.41-.79-.81,4.75-1.7,4.4c-.54-.2-.85-1.64-1.1-1.77-.43-.21-10.61-3.31-10.61-3.31Z" style="fill:#EA4659"></path><path d="M598.93,153a9.24,9.24,0,0,0-1.3,3.7" style="fill:#263238"></path><path d="M585,137.52s10-3.29,10.31-3.38.64-2.16,1.14-2.27,2.79,3.93,1.91,4.32c-.52.24-1.76-.56-2-.47-.45.15-9.85,5.15-9.85,5.15Z" style="fill:#EA4659"></path><path d="M596.69,132.24a9.21,9.21,0,0,0,1.69,3.53" style="fill:#263238"></path><path d="M575.89,131.14s4.73-9.37,4.9-9.68-1.07-2-.8-2.41,4.76.8,4.41,1.7c-.2.54-1.64.85-1.77,1.09-.21.43-3.31,10.62-3.31,10.62Z" style="fill:#EA4659"></path><path d="M580.42,119.14a9.24,9.24,0,0,0,3.7,1.3" style="fill:#263238"></path><path d="M564.94,133.06s-3.29-10-3.38-10.3-2.16-.64-2.27-1.14,3.93-2.8,4.32-1.92c.24.53-.56,1.76-.48,2,.16.45,5.16,9.85,5.16,9.85Z" style="fill:#EA4659"></path><path d="M559.66,121.38a9.12,9.12,0,0,0,3.53-1.7" style="fill:#263238"></path><path d="M558.55,142.17s-9.36-4.72-9.67-4.89-2,1.07-2.41.79.8-4.75,1.7-4.41c.54.21.85,1.65,1.09,1.77.43.21,10.62,3.32,10.62,3.32Z" style="fill:#EA4659"></path><path d="M546.56,137.64a9.17,9.17,0,0,0,1.3-3.69" style="fill:#263238"></path><path d="M560.48,153.13s-10,3.28-10.3,3.38-.64,2.15-1.15,2.27-2.79-3.93-1.91-4.33c.53-.23,1.76.57,2,.48.45-.15,9.85-5.16,9.85-5.16Z" style="fill:#EA4659"></path><path d="M548.8,158.41a9.21,9.21,0,0,0-1.7-3.54" style="fill:#263238"></path><path d="M569.59,159.51s-4.72,9.37-4.89,9.68,1.07,2,.79,2.41-4.75-.81-4.41-1.7c.21-.54,1.65-.85,1.77-1.1.21-.43,3.32-10.61,3.32-10.61Z" style="fill:#EA4659"></path><path d="M565.06,171.51a9.17,9.17,0,0,0-3.69-1.3" style="fill:#263238"></path><path d="M580.55,157.58s3.28,10,3.38,10.31,2.15.64,2.26,1.14-3.93,2.79-4.32,1.92c-.23-.53.57-1.77.48-2-.15-.45-5.16-9.85-5.16-9.85Z" style="fill:#EA4659"></path><path d="M585.83,169.27a9.29,9.29,0,0,0-3.54,1.69" style="fill:#263238"></path><path d="M590.58,150c-2.6,11.09-13.6,14.67-21.84,12.73a18.93,18.93,0,0,1-9-5,17,17,0,0,1-4.78-16.14c2.28-9.75,10-16.58,21.51-13.88a20.14,20.14,0,0,1,8.8,4.4A18,18,0,0,1,590.58,150Z" style="fill:#EA4659"></path><path d="M590.58,150c-2.6,11.09-13.6,14.67-21.84,12.73a18.93,18.93,0,0,1-9-5c4.83,2.3,10.94,3.61,17,.72,11.72-5.56,12.43-18,8.48-26.34A18,18,0,0,1,590.58,150Z" style="opacity:0.1"></path><path d="M585.94,146.68v-4.17l.46.08,7.74,1.18c.4.06,1.65-1.94,2.22-1.82.26.05.5,1.15.6,2.34.12,1.44,0,3-.6,3s-1.56-1.4-1.88-1.42C594,145.83,585.94,146.68,585.94,146.68Z" style="fill:#EA4659"></path><path d="M596.44,142.44a10.43,10.43,0,0,0,.14,4.44Z" style="fill:#263238"></path><path d="M586.4,142.59l7.74,1.18c.4.06,1.65-1.94,2.22-1.82.26.05.5,1.15.6,2.34a3.17,3.17,0,0,0-.49-1.11l-.12-.09a.38.38,0,0,0-.46.1c-.43.39-1,1.3-1.4,1.33S586.63,142.66,586.4,142.59Z" style="opacity:0.1"></path><path d="M583.68,136.73l-2.94-2.95.15-.11,0,0,6.51-4.78c.32-.25-.2-2.54.28-2.87.33-.22,2.37,1.29,3.35,2.51.45.55.68,1,.44,1.28-.46.47-2.1.12-2.34.33C588.75,130.46,583.68,136.73,583.68,136.73Z" style="fill:#EA4659"></path><path d="M588.11,126.29a10.49,10.49,0,0,0,3.24,3Z" style="fill:#263238"></path><path d="M580.92,133.65l6.51-4.78c.32-.25-.2-2.54.28-2.87.33-.22,2.37,1.29,3.35,2.51a7.71,7.71,0,0,0-1.77-1.12,1.69,1.69,0,0,0-.41-.11c-.19,0-.32,0-.36.1-.15.47.21,1.49-.06,2S581.43,133.38,580.92,133.65Z" style="opacity:0.1"></path><path d="M575.05,131.28h-4.16v0c.06-.45,1.19-7.79,1.24-8.18s-1.93-1.65-1.82-2.22,4.57-1,5.27-.22a.31.31,0,0,1,.09.22c0,.65-1.4,1.57-1.43,1.88C574.2,123.27,575.05,131.28,575.05,131.28Z" style="fill:#EA4659"></path><path d="M570.81,120.77a10.26,10.26,0,0,0,4.44-.14Z" style="fill:#263238"></path><path d="M570.9,131.25c.06-.45,1.19-7.79,1.24-8.18s-1.93-1.65-1.82-2.22,4.57-1,5.27-.22a4,4,0,0,0-3.25.09,1.53,1.53,0,0,0-.34.2c-.17.12-.26.24-.25.34.11.46,1.08,1.18,1,1.85S571,130.82,570.9,131.25Z" style="opacity:0.1"></path><path d="M557.24,129.78c-.17-.24-1.44,0-2.24-.08a.8.8,0,0,1-.62-.2c-.32-.48,3-4.56,3.78-3.79.47.46.13,2.1.33,2.34s2.73,2.32,4.59,3.84h0l2,1.63-3,2.94Z" style="fill:#EA4659"></path><path d="M554.67,129.1a10.39,10.39,0,0,0,3-3.24Z" style="fill:#263238"></path><path d="M555,129.7a.8.8,0,0,1-.62-.2c-.32-.48,3-4.56,3.78-3.79.47.46.13,2.1.33,2.34s2.73,2.32,4.59,3.84a40,40,0,0,1-5.18-3.35c-.17-.39-.17-1.42-.68-1.52a.49.49,0,0,0-.33.09,4.86,4.86,0,0,0-1.06.76,6.13,6.13,0,0,0-.94,1,.72.72,0,0,0-.11.15c-.12.19-.17.35-.11.45A.57.57,0,0,0,555,129.7Z" style="opacity:0.1"></path><path d="M549.22,146.89c-.13,0-.27-.36-.38-.84-.34-1.51-.45-4.51.38-4.52.66,0,1.57,1.4,1.88,1.43s4.37-.37,6.77-.62h0l1.78-.18v4.16l-8.2-1.26C551.05,145,549.79,147,549.22,146.89Z" style="fill:#EA4659"></path><path d="M549.14,146.4A10.37,10.37,0,0,0,549,142Z" style="fill:#263238"></path><path d="M548.84,146.05c-.34-1.51-.45-4.51.38-4.52.66,0,1.57,1.4,1.88,1.43s4.37-.37,6.77-.62c-2.24.45-6.59,1.32-6.78,1.26s-1.37-1.12-1.76-.83a.24.24,0,0,0-.08.11,2.1,2.1,0,0,0-.19.61A14.3,14.3,0,0,0,548.84,146.05Z" style="opacity:0.1"></path><path d="M555.65,161.47c-1-.92-2-2-1.56-2.43s2.09-.12,2.33-.32,4.1-4.9,5.19-6.24h0l.29-.37,3,2.94L558.16,160c-.32.24.2,2.54-.28,2.86C557.65,163,556.6,162.31,555.65,161.47Z" style="fill:#EA4659"></path><path d="M557.47,162.54a10.31,10.31,0,0,0-3.23-3Z" style="fill:#263238"></path><path d="M555.65,161.47c-1-.92-2-2-1.56-2.43s2.09-.12,2.33-.32,4.1-4.9,5.19-6.24h0s-4.41,7-4.79,7-1.87-.09-1.92.38a.7.7,0,0,0,.05.3A6.26,6.26,0,0,0,555.65,161.47Z" style="opacity:0.1"></path><path d="M569.91,168c0-.35.39-.77.77-1.14s.64-.6.65-.75c0-.53-.79-8.54-.79-8.54h4.16s-.11.7-.26,1.69v0c-.35,2.32-.95,6.22-1,6.49s1.94,1.66,1.83,2.23S569.91,169.08,569.91,168Z" style="fill:#EA4659"></path><path d="M574.77,168.07a10.32,10.32,0,0,0-4.43.13Z" style="fill:#263238"></path><path d="M569.91,168c0-.35.39-.77.77-1.14a8.53,8.53,0,0,0,0,1,.31.31,0,0,0,.12.19.92.92,0,0,0,.26.11,4.62,4.62,0,0,0,2-.06,2.17,2.17,0,0,0,.58-.2h0c.13-.07.21-.15.21-.24,0-.53-1.13-1.47-1-2.23.09-.54,1.09-4.16,1.65-6.18-.35,2.32-.95,6.22-1,6.49s1.94,1.66,1.83,2.23S569.91,169.08,569.91,168Z" style="opacity:0.1"></path><path d="M587.42,163.13c-.47-.47-.12-2.1-.32-2.34-.35-.42-6.61-5.49-6.61-5.49l2.94-2.94.47.65h0l4.44,6.05c.24.31,2.54-.21,2.86.28.16.24-.63,1.43-1.55,2.43h0C588.78,162.72,587.79,163.5,587.42,163.13Z" style="fill:#EA4659"></path><path d="M590.92,159.74a10.41,10.41,0,0,0-3,3.23Z" style="fill:#263238"></path><path d="M589.66,161.77a4.26,4.26,0,0,0,.47-1.19,1.22,1.22,0,0,0,0-.26c0-.23-.1-.4-.33-.44-.61-.1-1.72.28-2.07,0s-3.72-6.61-3.85-6.87l4.44,6.05c.24.31,2.54-.21,2.86.28C591.37,159.58,590.58,160.77,589.66,161.77Z" style="opacity:0.1"></path><g style="opacity:0.1"><path d="M574.58,155.94c-.18.39-.85.46-1.49.16s-1-.85-.84-1.24.84-.46,1.49-.16S574.76,155.55,574.58,155.94Z"></path><path d="M574.15,157.32a4.33,4.33,0,0,1-2.55-1.21,1.36,1.36,0,0,1-.41-1.49c.27-.69.92-.67,1.55-.73,0,0,0-.06,0-.06-1.08-.12-2.37.32-2.17,1.64.23,1.56,2.19,2.2,3.54,2.1C574.26,157.56,574.3,157.34,574.15,157.32Z"></path><path d="M572.41,134.7c0,.43-.85.69-1.8.58s-1.68-.53-1.63-.95.85-.69,1.8-.58S572.45,134.28,572.41,134.7Z"></path><path d="M569.58,136a3.51,3.51,0,0,1-1.26-.78,1,1,0,0,1,.1-1.55A3.17,3.17,0,0,1,571,133a0,0,0,0,0,0-.09c-1.05-.2-2.73-.07-3.35,1-.79,1.34.91,2,1.93,2.29C569.64,136.14,569.67,136,569.58,136Z"></path><path d="M563.69,148.55c0,.43-.59.76-1.3.74s-1.27-.38-1.26-.8.59-.76,1.3-.74S563.71,148.12,563.69,148.55Z"></path><path d="M562.28,150.26a5.39,5.39,0,0,1-2-1c-1-1.08.55-1.74,1.41-2,0,0,0-.08,0-.07-.92.08-2.33.65-2.13,1.8s1.75,1.63,2.71,1.47A.12.12,0,0,0,562.28,150.26Z"></path><path d="M566.48,143.92c.07.33-.31.68-.85.79s-1-.06-1.1-.39.32-.67.86-.78S566.41,143.6,566.48,143.92Z"></path><path d="M565.71,145.47a4.36,4.36,0,0,1-1.67-.4c-.95-.64.11-1.42.71-1.76,0,0,0-.06,0-.05-.69.22-1.65.9-1.3,1.74s1.61.92,2.31.63A.08.08,0,0,0,565.71,145.47Z"></path><path d="M586.19,145.18c.09.52-.54,1.06-1.41,1.22s-1.65-.15-1.74-.68.54-1.06,1.41-1.22S586.1,144.65,586.19,145.18Z"></path><path d="M583.07,144.3s0-.05,0,0c-.83.62-2,1.63-1.15,2.74a2.46,2.46,0,0,0,3.1.49.09.09,0,0,0-.06-.17,4.08,4.08,0,0,1-2.24-.28C581.36,146.37,582.29,145,583.07,144.3Z"></path></g><path d="M367.76,262.68l5,3.61c.22.16,1.62-.64,1.93-.39s-1.06,3.58-1.72,3.24c-.4-.21-.5-1.35-.68-1.47s-5.83-2.48-5.83-2.48Z" style="fill:#EA4659"></path><path d="M374.55,266.23a7,7,0,0,0-1.34,2.72" style="fill:#263238"></path><path d="M367.76,262.68l5,3.61c.22.16,1.62-.64,1.93-.39s-1.06,3.58-1.72,3.24c-.4-.21-.5-1.35-.68-1.47s-5.83-2.48-5.83-2.48Z" style="opacity:0.1"></path><path d="M367.57,254.27l6.06-1c.27,0,.69-1.59,1.09-1.63s1.78,3.28,1.07,3.5c-.43.13-1.31-.6-1.52-.56S368.4,257,368.4,257Z" style="fill:#EA4659"></path><path d="M374.87,252a7,7,0,0,0,1,2.87" style="fill:#263238"></path><path d="M367.57,254.27l6.06-1c.27,0,.69-1.59,1.09-1.63s1.78,3.28,1.07,3.5c-.43.13-1.31-.6-1.52-.56S368.4,257,368.4,257Z" style="opacity:0.1"></path><path d="M361.48,248.47s3.44-4.75,3.61-5-.64-1.62-.39-1.93,3.58,1.06,3.23,1.72c-.21.4-1.34.5-1.46.68S364,249.8,364,249.8Z" style="fill:#EA4659"></path><path d="M365,241.68a7.18,7.18,0,0,0,2.72,1.35" style="fill:#263238"></path><path d="M361.48,248.47s3.44-4.75,3.61-5-.64-1.62-.39-1.93,3.58,1.06,3.23,1.72c-.21.4-1.34.5-1.46.68S364,249.8,364,249.8Z" style="opacity:0.1"></path><path d="M353.07,248.66s-.92-5.79-1-6.06-1.6-.69-1.64-1.09,3.28-1.78,3.5-1.07c.13.43-.6,1.31-.55,1.52s2.36,5.87,2.36,5.87Z" style="fill:#EA4659"></path><path d="M350.78,241.36a7,7,0,0,0,2.87-1" style="fill:#263238"></path><path d="M353.07,248.66s-.92-5.79-1-6.06-1.6-.69-1.64-1.09,3.28-1.78,3.5-1.07c.13.43-.6,1.31-.55,1.52s2.36,5.87,2.36,5.87Z" style="opacity:0.1"></path><path d="M347.26,254.75l-5-3.61c-.22-.16-1.61.64-1.92.39s1.06-3.58,1.71-3.23c.4.21.5,1.34.68,1.46s5.83,2.48,5.83,2.48Z" style="fill:#EA4659"></path><path d="M340.48,251.21a7.06,7.06,0,0,0,1.34-2.72" style="fill:#263238"></path><path d="M347.26,254.75l-5-3.61c-.22-.16-1.61.64-1.92.39s1.06-3.58,1.71-3.23c.4.21.5,1.34.68,1.46s5.83,2.48,5.83,2.48Z" style="opacity:0.1"></path><path d="M347.46,263.16l-6.07,1c-.27.05-.69,1.6-1.08,1.64s-1.78-3.28-1.07-3.5c.42-.13,1.3.6,1.51.56.36-.08,5.88-2.37,5.88-2.37Z" style="fill:#EA4659"></path><path d="M340.16,265.45a7.09,7.09,0,0,0-1-2.87" style="fill:#263238"></path><path d="M347.46,263.16l-6.07,1c-.27.05-.69,1.6-1.08,1.64s-1.78-3.28-1.07-3.5c.42-.13,1.3.6,1.51.56.36-.08,5.88-2.37,5.88-2.37Z" style="opacity:0.1"></path><path d="M353.55,269l-3.61,5c-.16.22.64,1.62.39,1.92s-3.58-1.06-3.24-1.71c.21-.4,1.35-.5,1.47-.68s2.48-5.83,2.48-5.83Z" style="fill:#EA4659"></path><path d="M350,275.75a7,7,0,0,0-2.72-1.34" style="fill:#263238"></path><path d="M353.55,269l-3.61,5c-.16.22.64,1.62.39,1.92s-3.58-1.06-3.24-1.71c.21-.4,1.35-.5,1.47-.68s2.48-5.83,2.48-5.83Z" style="opacity:0.1"></path><path d="M362,268.77s.91,5.79,1,6.07,1.59.69,1.63,1.08-3.28,1.78-3.5,1.07c-.13-.42.6-1.3.56-1.51-.08-.36-2.37-5.88-2.37-5.88Z" style="fill:#EA4659"></path><path d="M364.25,276.07a7.09,7.09,0,0,0-2.87,1" style="fill:#263238"></path><path d="M362,268.77s.91,5.79,1,6.07,1.59.69,1.63,1.08-3.28,1.78-3.5,1.07c-.13-.42.6-1.3.56-1.51-.08-.36-2.37-5.88-2.37-5.88Z" style="opacity:0.1"></path><path d="M368.67,261.42s7.29,3.67,7.53,3.81,1.54-.83,1.87-.62-.62,3.7-1.32,3.43c-.42-.16-.66-1.28-.85-1.38s-8.26-2.58-8.26-2.58Z" style="fill:#EA4659"></path><path d="M378,264.94a7.16,7.16,0,0,0-1,2.88" style="fill:#263238"></path><path d="M367.17,252.89l8-2.63c.26-.07.5-1.67.88-1.76s2.18,3.06,1.49,3.36c-.41.19-1.37-.44-1.57-.37-.35.12-7.67,4-7.67,4Z" style="fill:#EA4659"></path><path d="M376.26,248.79a7.17,7.17,0,0,0,1.32,2.75" style="fill:#263238"></path><path d="M360.08,247.93s3.68-7.29,3.81-7.53-.83-1.54-.62-1.87,3.7.62,3.43,1.32c-.16.42-1.28.66-1.37.85s-2.59,8.26-2.59,8.26Z" style="fill:#EA4659"></path><path d="M363.61,238.6a7.1,7.1,0,0,0,2.87,1" style="fill:#263238"></path><path d="M351.56,249.43s-2.56-7.75-2.63-8-1.68-.5-1.77-.89,3.06-2.17,3.37-1.49c.18.42-.44,1.38-.37,1.58s4,7.66,4,7.66Z" style="fill:#EA4659"></path><path d="M347.45,240.34A7.17,7.17,0,0,0,350.2,239" style="fill:#263238"></path><path d="M346.59,256.52l-7.53-3.81c-.24-.14-1.54.83-1.87.62s.62-3.7,1.32-3.43c.42.16.66,1.28.85,1.37s8.26,2.58,8.26,2.58Z" style="fill:#EA4659"></path><path d="M337.26,253a7.16,7.16,0,0,0,1-2.87" style="fill:#263238"></path><path d="M348.09,265s-7.75,2.56-8,2.63-.5,1.68-.88,1.76-2.18-3.05-1.49-3.36c.41-.18,1.37.44,1.57.37.35-.12,7.67-4,7.67-4Z" style="fill:#EA4659"></path><path d="M339,269.15a7.17,7.17,0,0,0-1.32-2.75" style="fill:#263238"></path><path d="M355.18,270s-3.68,7.29-3.81,7.53.83,1.53.62,1.87-3.7-.63-3.43-1.32c.16-.42,1.28-.66,1.37-.86s2.59-8.25,2.59-8.25Z" style="fill:#EA4659"></path><path d="M351.65,279.34a7.1,7.1,0,0,0-2.87-1" style="fill:#263238"></path><path d="M363.7,268.51s2.56,7.75,2.63,8,1.68.5,1.77.89-3.06,2.17-3.37,1.49c-.18-.41.44-1.37.37-1.57-.11-.36-4-7.67-4-7.67Z" style="fill:#EA4659"></path><path d="M367.81,277.6a7.17,7.17,0,0,0-2.75,1.32" style="fill:#263238"></path><path d="M371.51,262.59c-2,8.63-10.58,11.41-17,9.91a14.8,14.8,0,0,1-7-3.86,13.2,13.2,0,0,1-3.72-12.56c1.78-7.58,7.79-12.89,16.74-10.79a15.55,15.55,0,0,1,6.84,3.42A14,14,0,0,1,371.51,262.59Z" style="fill:#EA4659"></path><path d="M371.51,262.59c-2,8.63-10.58,11.41-17,9.91a14.8,14.8,0,0,1-7-3.86c3.76,1.79,8.51,2.81,13.27.56,9.11-4.32,9.67-14,6.59-20.49A14,14,0,0,1,371.51,262.59Z" style="opacity:0.1"></path><path d="M367.89,260v-3.24l.36.06,6,.92c.31,0,1.28-1.51,1.73-1.42.2,0,.39.9.46,1.82.09,1.12,0,2.35-.46,2.35s-1.22-1.09-1.47-1.11C374.13,259.36,367.89,260,367.89,260Z" style="fill:#EA4659"></path><path d="M376.07,256.72a8,8,0,0,0,.1,3.46Z" style="fill:#263238"></path><path d="M368.25,256.84l6,.92c.31,0,1.28-1.51,1.73-1.42.2,0,.39.9.46,1.82a2.34,2.34,0,0,0-.38-.86l-.1-.07c-.11-.07-.22,0-.35.08-.34.3-.75,1-1.09,1S368.43,256.89,368.25,256.84Z" style="opacity:0.1"></path><path d="M366.14,252.28,363.85,250l.12-.09h0l5.06-3.73c.26-.18-.15-2,.23-2.22s1.84,1,2.6,1.95c.35.43.53.81.34,1-.35.36-1.63.09-1.81.25C370.08,247.4,366.14,252.28,366.14,252.28Z" style="fill:#EA4659"></path><path d="M369.59,244.16a8,8,0,0,0,2.52,2.37Z" style="fill:#263238"></path><path d="M364,249.89l5.06-3.73c.26-.18-.15-2,.23-2.22s1.84,1,2.6,1.95a5.33,5.33,0,0,0-1.38-.87,1.21,1.21,0,0,0-.32-.09c-.14,0-.24,0-.27.08-.12.36.16,1.15-.05,1.52A66.47,66.47,0,0,1,364,249.89Z" style="opacity:0.1"></path><path d="M359.42,248h-3.23v0c.05-.35.93-6.06,1-6.37s-1.5-1.28-1.41-1.72,3.55-.79,4.09-.18a.26.26,0,0,1,.07.18c0,.51-1.08,1.22-1.11,1.46C358.77,241.81,359.42,248,359.42,248Z" style="fill:#EA4659"></path><path d="M356.13,239.86a8,8,0,0,0,3.45-.1Z" style="fill:#263238"></path><path d="M356.19,248c.05-.35.93-6.06,1-6.37s-1.5-1.28-1.41-1.72,3.55-.79,4.09-.18a3.13,3.13,0,0,0-2.52.08,1.63,1.63,0,0,0-.27.15c-.13.1-.2.19-.19.27.08.36.84.92.8,1.44S356.28,247.68,356.19,248Z" style="opacity:0.1"></path><path d="M345.57,246.88c-.13-.19-1.12,0-1.75-.07-.23,0-.41-.05-.48-.15-.25-.38,2.35-3.55,3-2.95.36.36.09,1.63.25,1.82s2.12,1.81,3.57,3h0c.86.71,1.55,1.26,1.55,1.26l-2.29,2.29Z" style="fill:#EA4659"></path><path d="M343.57,246.34a8.08,8.08,0,0,0,2.37-2.51Z" style="fill:#263238"></path><path d="M343.82,246.81c-.23,0-.41-.05-.48-.15-.25-.38,2.35-3.55,3-2.95.36.36.09,1.63.25,1.82s2.12,1.81,3.57,3a30.2,30.2,0,0,1-4-2.61c-.13-.3-.13-1.11-.53-1.19a.49.49,0,0,0-.26.08,3.79,3.79,0,0,0-.82.59,4.68,4.68,0,0,0-.73.77l-.08.12c-.1.16-.13.28-.09.35A.41.41,0,0,0,343.82,246.81Z" style="opacity:0.1"></path><path d="M339.33,260.19c-.1,0-.21-.28-.29-.66-.27-1.17-.35-3.51.29-3.51s1.22,1.09,1.47,1.11,3.39-.29,5.26-.48h0l1.38-.14v3.23l-6.38-1C340.75,258.72,339.78,260.28,339.33,260.19Z" style="fill:#EA4659"></path><path d="M339.27,259.8a8.17,8.17,0,0,0-.1-3.45Z" style="fill:#263238"></path><path d="M339,259.53c-.27-1.17-.35-3.51.29-3.51s1.22,1.09,1.47,1.11,3.39-.29,5.26-.48c-1.74.35-5.13,1-5.27,1s-1.07-.88-1.37-.65a.22.22,0,0,0-.07.09,1.62,1.62,0,0,0-.15.47A10.19,10.19,0,0,0,339,259.53Z" style="opacity:0.1"></path><path d="M344.33,271.53c-.81-.71-1.53-1.57-1.21-1.89s1.63-.09,1.81-.25,3.19-3.81,4-4.86h0l.23-.28,2.29,2.29-5.21,3.82c-.25.19.16,2-.21,2.23C345.89,272.71,345.07,272.18,344.33,271.53Z" style="fill:#EA4659"></path><path d="M345.75,272.36a7.93,7.93,0,0,0-2.52-2.36Z" style="fill:#263238"></path><path d="M344.33,271.53c-.81-.71-1.53-1.57-1.21-1.89s1.63-.09,1.81-.25,3.19-3.81,4-4.86h0s-3.44,5.42-3.73,5.46-1.45-.07-1.49.3a.41.41,0,0,0,0,.23A5.14,5.14,0,0,0,344.33,271.53Z" style="opacity:0.1"></path><path d="M355.43,276.6c0-.27.3-.6.59-.88s.5-.47.51-.58c0-.42-.62-6.65-.62-6.65h3.24s-.09.54-.2,1.31v0c-.28,1.8-.75,4.84-.78,5.05s1.51,1.29,1.43,1.73S355.43,277.45,355.43,276.6Z" style="fill:#EA4659"></path><path d="M359.21,276.66a8.07,8.07,0,0,0-3.45.11Z" style="fill:#263238"></path><path d="M355.43,276.6c0-.27.3-.6.59-.88a6.7,6.7,0,0,0,0,.79.24.24,0,0,0,.09.15.58.58,0,0,0,.21.09,3.53,3.53,0,0,0,1.54-.05,1.82,1.82,0,0,0,.45-.15h0c.1-.06.16-.12.16-.19,0-.41-.88-1.14-.79-1.73.07-.42.85-3.24,1.29-4.81-.28,1.8-.75,4.84-.78,5.05s1.51,1.29,1.43,1.73S355.43,277.45,355.43,276.6Z" style="opacity:0.1"></path><path d="M369.05,272.82c-.36-.36-.09-1.63-.25-1.82s-5.14-4.27-5.14-4.27l2.29-2.29.36.51h0c.92,1.27,3.3,4.5,3.45,4.7s2-.16,2.23.22c.13.19-.49,1.12-1.21,1.9h0C370.11,272.51,369.34,273.11,369.05,272.82Z" style="fill:#EA4659"></path><path d="M371.77,270.18a8.16,8.16,0,0,0-2.37,2.52Z" style="fill:#263238"></path><path d="M370.79,271.77a3,3,0,0,0,.36-.93.75.75,0,0,0,0-.2c0-.19-.08-.31-.25-.34-.48-.08-1.34.21-1.62,0s-2.89-5.15-3-5.35c.92,1.27,3.3,4.5,3.45,4.7s2-.16,2.23.22C372.13,270.06,371.51,271,370.79,271.77Z" style="opacity:0.1"></path><g style="opacity:0.1"><path d="M359.06,267.23c-.14.3-.66.35-1.16.12s-.8-.66-.66-1,.66-.36,1.16-.13S359.2,266.93,359.06,267.23Z"></path><path d="M358.72,268.3a3.32,3.32,0,0,1-2-.94,1.06,1.06,0,0,1-.32-1.16c.21-.54.72-.52,1.21-.57,0,0,0,0,0-.05-.84-.09-1.84.26-1.68,1.28.18,1.21,1.7,1.72,2.76,1.64C358.81,268.49,358.84,268.32,358.72,268.3Z"></path><path d="M357.37,250.7c0,.33-.66.54-1.4.46s-1.3-.42-1.27-.75.66-.53,1.4-.45S357.4,250.37,357.37,250.7Z"></path><path d="M355.17,251.68a3.11,3.11,0,0,1-1-.61.82.82,0,0,1,.08-1.21,2.47,2.47,0,0,1,2-.51,0,0,0,0,0,0-.07c-.83-.15-2.13-.06-2.61.75-.62,1,.7,1.59,1.5,1.78A.07.07,0,0,0,355.17,251.68Z"></path><path d="M350.59,261.48c0,.33-.46.59-1,.57s-1-.29-1-.62.47-.59,1-.58S350.6,261.15,350.59,261.48Z"></path><path d="M349.49,262.81a4.26,4.26,0,0,1-1.55-.77c-.78-.84.43-1.36,1.1-1.55a0,0,0,0,0,0-.06c-.72.07-1.82.51-1.67,1.41s1.37,1.27,2.12,1.14A.09.09,0,0,0,349.49,262.81Z"></path><path d="M352.76,257.88c.05.25-.25.53-.67.61s-.8-.05-.85-.3.25-.53.67-.61S352.71,257.63,352.76,257.88Z"></path><path d="M352.16,259.08a3.4,3.4,0,0,1-1.3-.31c-.74-.5.08-1.1.55-1.37,0,0,0,0,0,0-.53.18-1.28.7-1,1.36s1.25.71,1.79.49A.07.07,0,0,0,352.16,259.08Z"></path><path d="M368.09,258.85c.07.41-.42.83-1.09.95s-1.28-.11-1.36-.52.42-.83,1.1-.95S368,258.45,368.09,258.85Z"></path><path d="M365.67,258.17s0,0,0,0c-.64.48-1.54,1.27-.9,2.13a1.92,1.92,0,0,0,2.42.38.07.07,0,0,0-.05-.13,3.17,3.17,0,0,1-1.75-.22C364.33,259.78,365.06,258.72,365.67,258.17Z"></path></g><path d="M618.36,258.71l5,3.61c.22.16,1.61-.64,1.92-.39s-1.06,3.58-1.72,3.23c-.39-.21-.49-1.34-.67-1.46s-5.83-2.48-5.83-2.48Z" style="fill:#EA4659"></path><path d="M625.14,262.25A7.06,7.06,0,0,0,623.8,265" style="fill:#263238"></path><path d="M618.36,258.71l5,3.61c.22.16,1.61-.64,1.92-.39s-1.06,3.58-1.72,3.23c-.39-.21-.49-1.34-.67-1.46s-5.83-2.48-5.83-2.48Z" style="opacity:0.1"></path><path d="M618.16,250.3l6.06-1c.28-.05.7-1.6,1.09-1.64s1.78,3.28,1.07,3.5c-.43.13-1.3-.6-1.51-.55S619,253,619,253Z" style="fill:#EA4659"></path><path d="M625.46,248a7.09,7.09,0,0,0,1,2.87" style="fill:#263238"></path><path d="M618.16,250.3l6.06-1c.28-.05.7-1.6,1.09-1.64s1.78,3.28,1.07,3.5c-.43.13-1.3-.6-1.51-.55S619,253,619,253Z" style="opacity:0.1"></path><path d="M612.07,244.49l3.61-5c.16-.22-.64-1.61-.39-1.92s3.58,1.06,3.23,1.71c-.2.4-1.34.5-1.46.68s-2.48,5.83-2.48,5.83Z" style="fill:#EA4659"></path><path d="M615.61,237.71a7,7,0,0,0,2.73,1.34" style="fill:#263238"></path><path d="M612.07,244.49l3.61-5c.16-.22-.64-1.61-.39-1.92s3.58,1.06,3.23,1.71c-.2.4-1.34.5-1.46.68s-2.48,5.83-2.48,5.83Z" style="opacity:0.1"></path><path d="M603.66,244.69s-.92-5.79-1-6.07-1.59-.69-1.63-1.08,3.27-1.78,3.49-1.07c.14.42-.59,1.3-.55,1.51.08.36,2.37,5.88,2.37,5.88Z" style="fill:#EA4659"></path><path d="M601.37,237.39a7.09,7.09,0,0,0,2.87-1" style="fill:#263238"></path><path d="M603.66,244.69s-.92-5.79-1-6.07-1.59-.69-1.63-1.08,3.27-1.78,3.49-1.07c.14.42-.59,1.3-.55,1.51.08.36,2.37,5.88,2.37,5.88Z" style="opacity:0.1"></path><path d="M597.85,250.78l-5-3.61c-.22-.16-1.62.64-1.93.39s1.06-3.58,1.72-3.24c.4.21.5,1.35.68,1.47s5.83,2.48,5.83,2.48Z" style="fill:#EA4659"></path><path d="M591.07,247.23a7,7,0,0,0,1.34-2.72" style="fill:#263238"></path><path d="M597.85,250.78l-5-3.61c-.22-.16-1.62.64-1.93.39s1.06-3.58,1.72-3.24c.4.21.5,1.35.68,1.47s5.83,2.48,5.83,2.48Z" style="opacity:0.1"></path><path d="M598.05,259.19l-6.06,1c-.27,0-.69,1.59-1.09,1.63s-1.78-3.28-1.07-3.5c.43-.13,1.3.6,1.51.56.37-.08,5.88-2.37,5.88-2.37Z" style="fill:#EA4659"></path><path d="M590.75,261.48a7,7,0,0,0-1-2.87" style="fill:#263238"></path><path d="M598.05,259.19l-6.06,1c-.27,0-.69,1.59-1.09,1.63s-1.78-3.28-1.07-3.5c.43-.13,1.3.6,1.51.56.37-.08,5.88-2.37,5.88-2.37Z" style="opacity:0.1"></path><path d="M604.14,265l-3.61,5c-.16.22.64,1.62.39,1.93s-3.58-1.06-3.23-1.72c.21-.4,1.34-.5,1.46-.68s2.48-5.83,2.48-5.83Z" style="fill:#EA4659"></path><path d="M600.6,271.78a7.06,7.06,0,0,0-2.72-1.34" style="fill:#263238"></path><path d="M604.14,265l-3.61,5c-.16.22.64,1.62.39,1.93s-3.58-1.06-3.23-1.72c.21-.4,1.34-.5,1.46-.68s2.48-5.83,2.48-5.83Z" style="opacity:0.1"></path><path d="M612.55,264.8s.92,5.79,1,6.06,1.6.69,1.64,1.09-3.28,1.78-3.5,1.07c-.13-.43.6-1.31.55-1.52-.07-.36-2.37-5.87-2.37-5.87Z" style="fill:#EA4659"></path><path d="M614.84,272.1a7,7,0,0,0-2.87,1" style="fill:#263238"></path><path d="M612.55,264.8s.92,5.79,1,6.06,1.6.69,1.64,1.09-3.28,1.78-3.5,1.07c-.13-.43.6-1.31.55-1.52-.07-.36-2.37-5.87-2.37-5.87Z" style="opacity:0.1"></path><path d="M619.26,257.44l7.53,3.81c.24.14,1.54-.83,1.88-.62s-.63,3.7-1.33,3.43c-.42-.16-.66-1.28-.85-1.37s-8.25-2.58-8.25-2.58Z" style="fill:#EA4659"></path><path d="M628.6,261a7,7,0,0,0-1,2.87" style="fill:#263238"></path><path d="M617.76,248.92s7.76-2.56,8-2.63.5-1.68.89-1.76,2.17,3.05,1.49,3.36c-.41.18-1.37-.44-1.58-.37s-7.66,4-7.66,4Z" style="fill:#EA4659"></path><path d="M626.86,244.81a7.09,7.09,0,0,0,1.31,2.75" style="fill:#263238"></path><path d="M610.67,244s3.68-7.29,3.82-7.53-.84-1.53-.62-1.87,3.69.63,3.43,1.32c-.16.42-1.28.66-1.38.86s-2.58,8.25-2.58,8.25Z" style="fill:#EA4659"></path><path d="M614.2,234.62a7.16,7.16,0,0,0,2.88,1" style="fill:#263238"></path><path d="M602.15,245.45s-2.55-7.75-2.63-8-1.67-.49-1.76-.88,3.06-2.17,3.36-1.49c.18.41-.44,1.37-.37,1.57.12.36,4,7.67,4,7.67Z" style="fill:#EA4659"></path><path d="M598.05,236.36a7.15,7.15,0,0,0,2.74-1.32" style="fill:#263238"></path><path d="M597.19,252.54s-7.29-3.67-7.53-3.81-1.54.83-1.88.62.63-3.7,1.33-3.43c.42.16.66,1.28.85,1.38s8.26,2.58,8.26,2.58Z" style="fill:#EA4659"></path><path d="M587.85,249a7,7,0,0,0,1-2.88" style="fill:#263238"></path><path d="M598.69,261.06s-7.76,2.56-8,2.63-.5,1.68-.89,1.77-2.17-3.06-1.49-3.37c.41-.18,1.37.45,1.58.38s7.66-4,7.66-4Z" style="fill:#EA4659"></path><path d="M589.59,265.17a7.09,7.09,0,0,0-1.31-2.75" style="fill:#263238"></path><path d="M605.78,266s-3.68,7.29-3.82,7.53.84,1.54.62,1.87-3.69-.62-3.43-1.32c.16-.42,1.28-.66,1.38-.85s2.58-8.26,2.58-8.26Z" style="fill:#EA4659"></path><path d="M602.25,275.36a7.16,7.16,0,0,0-2.88-1" style="fill:#263238"></path><path d="M614.3,264.53s2.55,7.75,2.63,8,1.67.5,1.76.89-3.06,2.17-3.36,1.49c-.18-.42.44-1.38.37-1.58-.12-.35-4-7.66-4-7.66Z" style="fill:#EA4659"></path><path d="M618.4,273.62a7.15,7.15,0,0,0-2.74,1.32" style="fill:#263238"></path><path d="M622.1,258.61c-2,8.63-10.58,11.42-17,9.91a14.75,14.75,0,0,1-7-3.85,13.22,13.22,0,0,1-3.72-12.56c1.77-7.58,7.79-12.9,16.73-10.8a15.66,15.66,0,0,1,6.85,3.43A14,14,0,0,1,622.1,258.61Z" style="fill:#EA4659"></path><path d="M622.1,258.61c-2,8.63-10.58,11.42-17,9.91a14.75,14.75,0,0,1-7-3.85c3.76,1.78,8.51,2.81,13.26.55,9.12-4.32,9.68-14,6.6-20.48A14,14,0,0,1,622.1,258.61Z" style="opacity:0.1"></path><path d="M618.49,256.05V252.8l.36.06,6,.92c.31.05,1.29-1.51,1.73-1.42.2,0,.39.9.47,1.83.09,1.12,0,2.34-.47,2.34s-1.22-1.09-1.46-1.11C624.72,255.39,618.49,256.05,618.49,256.05Z" style="fill:#EA4659"></path><path d="M626.66,252.75a8.06,8.06,0,0,0,.11,3.45Z" style="fill:#263238"></path><path d="M618.85,252.86l6,.92c.31.05,1.29-1.51,1.73-1.42.2,0,.39.9.47,1.83a2.39,2.39,0,0,0-.39-.86.32.32,0,0,0-.09-.08.31.31,0,0,0-.36.08c-.33.3-.74,1-1.09,1S619,252.92,618.85,252.86Z" style="opacity:0.1"></path><path d="M616.74,248.3,614.45,246l.11-.09h0l5.06-3.72c.25-.19-.16-2,.22-2.23s1.84,1,2.6,1.95c.36.43.54.81.35,1-.36.36-1.63.09-1.82.25S616.74,248.3,616.74,248.3Z" style="fill:#EA4659"></path><path d="M620.18,240.19a8.06,8.06,0,0,0,2.52,2.36Z" style="fill:#263238"></path><path d="M614.59,245.91l5.06-3.72c.25-.19-.16-2,.22-2.23s1.84,1,2.6,1.95a5.75,5.75,0,0,0-1.37-.87,1.32,1.32,0,0,0-.32-.09c-.15,0-.25,0-.28.08-.12.37.16,1.16,0,1.52S615,245.7,614.59,245.91Z" style="opacity:0.1"></path><path d="M610,244.07h-3.24v0c.05-.36.93-6.07,1-6.37s-1.51-1.29-1.42-1.73,3.56-.79,4.1-.17a.28.28,0,0,1,.07.17c0,.51-1.09,1.22-1.11,1.46C609.36,237.83,610,244.07,610,244.07Z" style="fill:#EA4659"></path><path d="M606.72,235.89a8.11,8.11,0,0,0,3.46-.11Z" style="fill:#263238"></path><path d="M606.79,244.05c.05-.36.93-6.07,1-6.37s-1.51-1.29-1.42-1.73,3.56-.79,4.1-.17a3.12,3.12,0,0,0-2.53.07l-.26.15c-.14.1-.21.19-.19.27.08.36.83.92.8,1.44S606.87,243.7,606.79,244.05Z" style="opacity:0.1"></path><path d="M596.16,242.9c-.13-.19-1.12,0-1.74-.06a.63.63,0,0,1-.48-.16c-.25-.37,2.35-3.54,2.94-3,.37.36.1,1.63.25,1.82s2.13,1.81,3.58,3a0,0,0,0,1,0,0l1.56,1.26L600,248.1Z" style="fill:#EA4659"></path><path d="M594.16,242.37a8,8,0,0,0,2.37-2.52Z" style="fill:#263238"></path><path d="M594.42,242.84a.63.63,0,0,1-.48-.16c-.25-.37,2.35-3.54,2.94-3,.37.36.1,1.63.25,1.82s2.13,1.81,3.58,3a30.2,30.2,0,0,1-4-2.61c-.14-.3-.14-1.1-.53-1.18a.44.44,0,0,0-.26.07,4.51,4.51,0,0,0-.83.59,5.17,5.17,0,0,0-.73.78.83.83,0,0,0-.08.12c-.09.15-.13.27-.09.35A.6.6,0,0,0,594.42,242.84Z" style="opacity:0.1"></path><path d="M589.93,256.21c-.11,0-.21-.28-.3-.65-.27-1.18-.35-3.51.3-3.52s1.22,1.09,1.46,1.11,3.4-.28,5.26-.48h0l1.38-.14v3.24l-6.38-1C591.35,254.75,590.37,256.3,589.93,256.21Z" style="fill:#EA4659"></path><path d="M589.87,255.83a8.11,8.11,0,0,0-.11-3.46Z" style="fill:#263238"></path><path d="M589.63,255.56c-.27-1.18-.35-3.51.3-3.52s1.22,1.09,1.46,1.11,3.4-.28,5.26-.48c-1.74.35-5.12,1-5.27,1s-1.07-.87-1.37-.65a.35.35,0,0,0-.07.09,1.77,1.77,0,0,0-.14.47A11.26,11.26,0,0,0,589.63,255.56Z" style="opacity:0.1"></path><path d="M594.93,267.56c-.81-.72-1.53-1.58-1.22-1.89s1.63-.1,1.82-.25,3.19-3.82,4-4.86h0l.22-.29,2.29,2.29-5.2,3.83c-.25.19.15,2-.22,2.22C596.48,268.73,595.67,268.21,594.93,267.56Z" style="fill:#EA4659"></path><path d="M596.34,268.39a8.08,8.08,0,0,0-2.51-2.37Z" style="fill:#263238"></path><path d="M594.93,267.56c-.81-.72-1.53-1.58-1.22-1.89s1.63-.1,1.82-.25,3.19-3.82,4-4.86h0s-3.44,5.41-3.73,5.46-1.45-.07-1.5.29a.53.53,0,0,0,0,.23A5,5,0,0,0,594.93,267.56Z" style="opacity:0.1"></path><path d="M606,272.62c0-.27.31-.59.6-.88s.5-.47.51-.58c0-.42-.62-6.65-.62-6.65h3.24s-.09.54-.2,1.31c0,0,0,0,0,0-.28,1.81-.74,4.84-.77,5.05s1.51,1.29,1.42,1.73S606,273.47,606,272.62Z" style="fill:#EA4659"></path><path d="M609.81,272.69a8,8,0,0,0-3.46.1Z" style="fill:#263238"></path><path d="M606,272.62c0-.27.31-.59.6-.88a5.15,5.15,0,0,0,0,.8.2.2,0,0,0,.09.14.53.53,0,0,0,.2.09,3.52,3.52,0,0,0,1.54,0,2.42,2.42,0,0,0,.46-.16h0c.11-.06.17-.12.17-.18,0-.42-.88-1.15-.79-1.74.06-.42.85-3.24,1.28-4.81-.28,1.81-.74,4.84-.77,5.05s1.51,1.29,1.42,1.73S606,273.47,606,272.62Z" style="opacity:0.1"></path><path d="M619.65,268.84c-.37-.36-.1-1.63-.26-1.82s-5.14-4.26-5.14-4.26l2.29-2.29.37.5h0l3.46,4.71c.19.24,2-.17,2.22.21.13.19-.49,1.12-1.21,1.9h0C620.7,268.53,619.93,269.13,619.65,268.84Z" style="fill:#EA4659"></path><path d="M622.36,266.21a8,8,0,0,0-2.36,2.51Z" style="fill:#263238"></path><path d="M621.38,267.79a3.22,3.22,0,0,0,.37-.93.47.47,0,0,0,0-.2c0-.18-.07-.31-.25-.34-.47-.08-1.34.21-1.61,0s-2.9-5.15-3-5.35l3.46,4.71c.19.24,2-.17,2.22.21C622.72,266.08,622.1,267,621.38,267.79Z" style="opacity:0.1"></path><g style="opacity:0.1"><path d="M609.65,263.25c-.13.3-.65.36-1.16.13s-.79-.67-.65-1,.66-.35,1.16-.12S609.79,263,609.65,263.25Z"></path><path d="M609.32,264.33a3.39,3.39,0,0,1-2-.95,1.06,1.06,0,0,1-.32-1.16c.21-.54.71-.52,1.2-.56,0,0,0-.05,0-.05-.84-.1-1.84.25-1.69,1.28.18,1.21,1.71,1.71,2.76,1.63C609.41,264.51,609.43,264.34,609.32,264.33Z"></path><path d="M608,246.73c0,.33-.66.53-1.39.45s-1.31-.41-1.27-.74.66-.53,1.39-.45S608,246.4,608,246.73Z"></path><path d="M605.77,247.7a2.7,2.7,0,0,1-1-.61.8.8,0,0,1,.07-1.2,2.49,2.49,0,0,1,2-.52,0,0,0,0,0,0-.07c-.82-.15-2.13-.05-2.61.75-.61,1,.71,1.6,1.51,1.78C605.81,247.85,605.83,247.73,605.77,247.7Z"></path><path d="M601.19,257.5c0,.33-.47.59-1,.58s-1-.3-1-.63.46-.59,1-.57S601.19,257.17,601.19,257.5Z"></path><path d="M600.09,258.83a4,4,0,0,1-1.55-.77c-.79-.84.43-1.35,1.09-1.55,0,0,0-.06,0-.05-.72.06-1.82.5-1.66,1.4s1.36,1.27,2.11,1.14C600.16,259,600.16,258.87,600.09,258.83Z"></path><path d="M603.35,253.9c.06.25-.24.53-.66.61s-.8,0-.85-.3.24-.52.66-.61S603.3,253.65,603.35,253.9Z"></path><path d="M602.76,255.1a3.27,3.27,0,0,1-1.31-.31c-.74-.5.09-1.1.56-1.36,0,0,0-.05,0,0-.53.17-1.29.7-1,1.35s1.25.72,1.79.49A.07.07,0,0,0,602.76,255.1Z"></path><path d="M618.69,254.88c.07.4-.42.83-1.1,1s-1.28-.12-1.35-.53.42-.83,1.1-1S618.62,254.47,618.69,254.88Z"></path><path d="M616.26,254.2s0,0,0,0c-.64.48-1.53,1.27-.89,2.13a1.93,1.93,0,0,0,2.41.39.07.07,0,0,0,0-.13,3.36,3.36,0,0,1-1.75-.22C614.93,255.8,615.66,254.74,616.26,254.2Z"></path></g><path d="M200.28,161.54l6.39,4.64c.28.21,2.08-.82,2.47-.5s-1.36,4.6-2.2,4.15c-.51-.27-.64-1.73-.88-1.88-.39-.26-7.49-3.18-7.49-3.18Z" style="fill:#EA4659"></path><path d="M209,166.09a9,9,0,0,0-1.72,3.5" style="fill:#263238"></path><path d="M200.28,161.54l6.39,4.64c.28.21,2.08-.82,2.47-.5s-1.36,4.6-2.2,4.15c-.51-.27-.64-1.73-.88-1.88-.39-.26-7.49-3.18-7.49-3.18Z" style="opacity:0.1"></path><path d="M200,150.73l7.79-1.24c.35-.05.89-2.05,1.4-2.1s2.29,4.22,1.38,4.5c-.55.17-1.68-.77-1.95-.71-.46.09-7.55,3-7.55,3Z" style="fill:#EA4659"></path><path d="M209.41,147.78a9.09,9.09,0,0,0,1.26,3.7" style="fill:#263238"></path><path d="M200,150.73l7.79-1.24c.35-.05.89-2.05,1.4-2.1s2.29,4.22,1.38,4.5c-.55.17-1.68-.77-1.95-.71-.46.09-7.55,3-7.55,3Z" style="opacity:0.1"></path><path d="M192.2,143.26l4.64-6.38c.21-.29-.82-2.08-.5-2.47s4.6,1.36,4.16,2.2c-.27.51-1.73.64-1.88.87-.26.4-3.19,7.5-3.19,7.5Z" style="fill:#EA4659"></path><path d="M196.76,134.55a9.06,9.06,0,0,0,3.49,1.72" style="fill:#263238"></path><path d="M192.2,143.26l4.64-6.38c.21-.29-.82-2.08-.5-2.47s4.6,1.36,4.16,2.2c-.27.51-1.73.64-1.88.87-.26.4-3.19,7.5-3.19,7.5Z" style="opacity:0.1"></path><path d="M181.39,143.52s-1.18-7.44-1.23-7.79-2-.89-2.1-1.4,4.21-2.29,4.49-1.38c.17.55-.77,1.68-.71,2,.1.46,3,7.55,3,7.55Z" style="fill:#EA4659"></path><path d="M178.45,134.14a9.19,9.19,0,0,0,3.69-1.26" style="fill:#263238"></path><path d="M181.39,143.52s-1.18-7.44-1.23-7.79-2-.89-2.1-1.4,4.21-2.29,4.49-1.38c.17.55-.77,1.68-.71,2,.1.46,3,7.55,3,7.55Z" style="opacity:0.1"></path><path d="M173.93,151.34s-6.1-4.43-6.39-4.63-2.08.82-2.47.49,1.36-4.6,2.21-4.15c.5.27.64,1.73.87,1.88.39.26,7.49,3.19,7.49,3.19Z" style="fill:#EA4659"></path><path d="M165.21,146.79a9,9,0,0,0,1.72-3.5" style="fill:#263238"></path><path d="M173.93,151.34s-6.1-4.43-6.39-4.63-2.08.82-2.47.49,1.36-4.6,2.21-4.15c.5.27.64,1.73.87,1.88.39.26,7.49,3.19,7.49,3.19Z" style="opacity:0.1"></path><path d="M174.18,162.16l-7.79,1.23c-.35.05-.89,2.05-1.4,2.1s-2.29-4.21-1.37-4.5c.54-.17,1.67.77,1.94.72.46-.1,7.55-3.05,7.55-3.05Z" style="fill:#EA4659"></path><path d="M164.8,165.1a9.11,9.11,0,0,0-1.25-3.69" style="fill:#263238"></path><path d="M174.18,162.16l-7.79,1.23c-.35.05-.89,2.05-1.4,2.1s-2.29-4.21-1.37-4.5c.54-.17,1.67.77,1.94.72.46-.1,7.55-3.05,7.55-3.05Z" style="opacity:0.1"></path><path d="M182,169.62,177.37,176c-.21.29.82,2.08.5,2.48s-4.6-1.36-4.16-2.21c.27-.51,1.73-.64,1.88-.87.26-.4,3.19-7.49,3.19-7.49Z" style="fill:#EA4659"></path><path d="M177.46,178.34a9.25,9.25,0,0,0-3.5-1.73" style="fill:#263238"></path><path d="M182,169.62,177.37,176c-.21.29.82,2.08.5,2.48s-4.6-1.36-4.16-2.21c.27-.51,1.73-.64,1.88-.87.26-.4,3.19-7.49,3.19-7.49Z" style="opacity:0.1"></path><path d="M192.82,169.37s1.18,7.44,1.23,7.79,2.06.89,2.11,1.4-4.22,2.29-4.5,1.37c-.17-.55.77-1.67.71-1.94-.1-.47-3-7.56-3-7.56Z" style="fill:#EA4659"></path><path d="M195.76,178.75a9.15,9.15,0,0,0-3.69,1.25" style="fill:#263238"></path><path d="M192.82,169.37s1.18,7.44,1.23,7.79,2.06.89,2.11,1.4-4.22,2.29-4.5,1.37c-.17-.55.77-1.67.71-1.94-.1-.47-3-7.56-3-7.56Z" style="opacity:0.1"></path><path d="M201.45,159.91s9.36,4.73,9.67,4.9,2-1.07,2.41-.8-.8,4.76-1.7,4.41c-.54-.2-.85-1.64-1.09-1.77-.43-.21-10.62-3.31-10.62-3.31Z" style="fill:#EA4659"></path><path d="M213.44,164.44a9.24,9.24,0,0,0-1.3,3.7" style="fill:#263238"></path><path d="M199.52,149s10-3.29,10.3-3.38.64-2.16,1.15-2.27,2.79,3.93,1.91,4.32c-.53.24-1.76-.56-2-.48-.45.16-9.85,5.16-9.85,5.16Z" style="fill:#EA4659"></path><path d="M211.2,143.68a9.12,9.12,0,0,0,1.7,3.53" style="fill:#263238"></path><path d="M190.41,142.57s4.72-9.36,4.89-9.67-1.07-2-.79-2.41,4.75.8,4.41,1.7c-.21.54-1.65.85-1.77,1.09-.21.43-3.32,10.62-3.32,10.62Z" style="fill:#EA4659"></path><path d="M194.94,130.58a9.17,9.17,0,0,0,3.69,1.3" style="fill:#263238"></path><path d="M179.45,144.5s-3.28-10-3.38-10.3-2.15-.64-2.26-1.15,3.93-2.79,4.32-1.91c.23.53-.57,1.76-.48,2,.15.45,5.16,9.85,5.16,9.85Z" style="fill:#EA4659"></path><path d="M174.17,132.82a9.21,9.21,0,0,0,3.54-1.7" style="fill:#263238"></path><path d="M173.07,153.61s-9.37-4.72-9.68-4.89-2,1.07-2.41.79.81-4.75,1.7-4.41c.54.21.85,1.65,1.1,1.77.43.21,10.61,3.32,10.61,3.32Z" style="fill:#EA4659"></path><path d="M161.07,149.08a9.17,9.17,0,0,0,1.3-3.69" style="fill:#263238"></path><path d="M175,164.57s-10,3.28-10.31,3.38-.64,2.15-1.14,2.26-2.79-3.93-1.91-4.32c.52-.23,1.76.57,2,.48.45-.15,9.85-5.16,9.85-5.16Z" style="fill:#EA4659"></path><path d="M163.31,169.85a9.29,9.29,0,0,0-1.69-3.54" style="fill:#263238"></path><path d="M184.11,171s-4.73,9.37-4.9,9.68,1.07,2,.8,2.41-4.76-.81-4.41-1.7c.2-.54,1.64-.85,1.77-1.1.21-.43,3.31-10.61,3.31-10.61Z" style="fill:#EA4659"></path><path d="M179.58,183a9.24,9.24,0,0,0-3.7-1.3" style="fill:#263238"></path><path d="M195.06,169s3.29,10,3.38,10.31,2.16.64,2.27,1.14-3.93,2.79-4.32,1.91c-.24-.52.56-1.76.48-2-.16-.45-5.16-9.85-5.16-9.85Z" style="fill:#EA4659"></path><path d="M200.34,180.71a9.21,9.21,0,0,0-3.53,1.69" style="fill:#263238"></path><path d="M205.09,161.42c-2.6,11.09-13.59,14.67-21.84,12.73a18.67,18.67,0,0,1-12.39-9.49,16.83,16.83,0,0,1-1.43-11.61c2.29-9.74,10-16.57,21.52-13.87A20.42,20.42,0,0,1,199,143,17.94,17.94,0,0,1,205.09,161.42Z" style="fill:#EA4659"></path><path d="M205.09,161.42c-2.6,11.09-13.59,14.67-21.84,12.73a18.67,18.67,0,0,1-12.39-9.49c4.51,3.38,12.83,7.94,21.16,4,11.49-5.44,11.47-18.1,7-25.68A17.94,17.94,0,0,1,205.09,161.42Z" style="opacity:0.1"></path><path d="M200.45,158.12V154l.46.07,7.75,1.19c.39.06,1.65-1.94,2.22-1.83.25.06.5,1.16.6,2.35.11,1.44,0,3-.6,3s-1.57-1.4-1.88-1.42C208.46,157.27,200.45,158.12,200.45,158.12Z" style="fill:#EA4659"></path><path d="M211,153.88a10.32,10.32,0,0,0,.13,4.43Z" style="fill:#263238"></path><path d="M200.91,154l7.75,1.19c.39.06,1.65-1.94,2.22-1.83.25.06.5,1.16.6,2.35a3,3,0,0,0-.5-1.11l-.12-.09c-.15-.09-.29,0-.46.1-.43.39-1,1.29-1.4,1.33S201.14,154.1,200.91,154Z" style="opacity:0.1"></path><path d="M198.2,148.16l-2.95-2.94a1,1,0,0,0,.16-.11l0,0,6.5-4.78c.33-.25-.2-2.54.29-2.87.33-.22,2.36,1.29,3.34,2.51.45.55.69,1,.44,1.28-.46.47-2.09.12-2.33.33C203.26,141.9,198.2,148.16,198.2,148.16Z" style="fill:#EA4659"></path><path d="M202.63,137.73a10.41,10.41,0,0,0,3.23,3.05Z" style="fill:#263238"></path><path d="M195.44,145.09l6.5-4.78c.33-.25-.2-2.54.29-2.87.33-.22,2.36,1.29,3.34,2.51a7.5,7.5,0,0,0-1.77-1.12,1.58,1.58,0,0,0-.41-.11c-.19,0-.31,0-.35.1-.15.47.21,1.49-.07,2S195.94,144.82,195.44,145.09Z" style="opacity:0.1"></path><path d="M189.56,142.72H185.4v0l1.25-8.18c.05-.4-1.94-1.65-1.82-2.22s4.57-1,5.26-.23a.33.33,0,0,1,.09.23c0,.65-1.39,1.57-1.42,1.88C188.72,134.71,189.56,142.72,189.56,142.72Z" style="fill:#EA4659"></path><path d="M185.33,132.21a10.43,10.43,0,0,0,4.44-.14Z" style="fill:#263238"></path><path d="M185.41,142.69l1.25-8.18c.05-.4-1.94-1.65-1.82-2.22s4.57-1,5.26-.23a4.05,4.05,0,0,0-3.25.1,1.79,1.79,0,0,0-.34.2c-.17.12-.26.24-.24.34.1.46,1.07,1.18,1,1.85S185.52,142.26,185.41,142.69Z" style="opacity:0.1"></path><path d="M171.75,141.22c-.17-.24-1.43,0-2.24-.08a.8.8,0,0,1-.62-.2c-.32-.48,3-4.56,3.79-3.79.47.46.12,2.1.32,2.34s2.73,2.32,4.6,3.84h0l2,1.63-2.94,2.94S172,141.54,171.75,141.22Z" style="fill:#EA4659"></path><path d="M169.19,140.54a10.51,10.51,0,0,0,3-3.24Z" style="fill:#263238"></path><path d="M169.51,141.14a.8.8,0,0,1-.62-.2c-.32-.48,3-4.56,3.79-3.79.47.46.12,2.1.32,2.34s2.73,2.32,4.6,3.84a39.23,39.23,0,0,1-5.18-3.35c-.18-.39-.18-1.42-.69-1.53a.59.59,0,0,0-.33.1,5.11,5.11,0,0,0-1.06.76,6.13,6.13,0,0,0-.94,1,.65.65,0,0,0-.1.15c-.12.19-.17.35-.12.45A.61.61,0,0,0,169.51,141.14Z" style="opacity:0.1"></path><path d="M163.74,158.33c-.14,0-.27-.36-.38-.84-.35-1.51-.45-4.51.38-4.52.65,0,1.57,1.4,1.88,1.43s4.37-.37,6.76-.62h0l1.78-.18v4.16L166,156.5C165.56,156.45,164.31,158.45,163.74,158.33Z" style="fill:#EA4659"></path><path d="M163.66,157.84a10.26,10.26,0,0,0-.14-4.44Z" style="fill:#263238"></path><path d="M163.36,157.49c-.35-1.51-.45-4.51.38-4.52.65,0,1.57,1.4,1.88,1.43s4.37-.37,6.76-.62c-2.23.45-6.58,1.32-6.77,1.26s-1.38-1.13-1.76-.83a.35.35,0,0,0-.09.11,2.1,2.1,0,0,0-.19.61A13.32,13.32,0,0,0,163.36,157.49Z" style="opacity:0.1"></path><path d="M170.16,172.91c-1-.92-2-2-1.56-2.43s2.1-.12,2.34-.32,4.1-4.9,5.18-6.24h0l.29-.37,2.94,2.94-6.69,4.92c-.32.24.2,2.54-.28,2.86C172.16,174.42,171.11,173.75,170.16,172.91Z" style="fill:#EA4659"></path><path d="M172,174a10.26,10.26,0,0,0-3.24-3Z" style="fill:#263238"></path><path d="M170.16,172.91c-1-.92-2-2-1.56-2.43s2.1-.12,2.34-.32,4.1-4.9,5.18-6.24h0s-4.42,7-4.8,7-1.86-.09-1.92.38a.72.72,0,0,0,.05.3A6.77,6.77,0,0,0,170.16,172.91Z" style="opacity:0.1"></path><path d="M184.42,179.43c0-.35.4-.77.77-1.14s.65-.6.66-.75c.05-.53-.8-8.54-.8-8.54h4.16s-.11.7-.25,1.68a0,0,0,0,1,0,0c-.36,2.32-1,6.22-1,6.49s1.93,1.66,1.82,2.23S184.42,180.52,184.42,179.43Z" style="fill:#EA4659"></path><path d="M189.29,179.51a10.37,10.37,0,0,0-4.44.13Z" style="fill:#263238"></path><path d="M184.42,179.43c0-.35.4-.77.77-1.14a8.45,8.45,0,0,0,0,1,.27.27,0,0,0,.12.18.79.79,0,0,0,.26.12,4.62,4.62,0,0,0,2-.06,2.69,2.69,0,0,0,.59-.2h0c.14-.07.22-.15.22-.24,0-.53-1.14-1.47-1-2.23.08-.54,1.09-4.16,1.65-6.18-.36,2.32-1,6.22-1,6.49s1.93,1.66,1.82,2.23S184.42,180.52,184.42,179.43Z" style="opacity:0.1"></path><path d="M201.94,174.56c-.47-.46-.13-2.09-.33-2.33-.34-.42-6.61-5.49-6.61-5.49L198,163.8l.47.65h0c1.2,1.63,4.25,5.78,4.44,6.05s2.54-.21,2.87.28c.16.24-.64,1.43-1.56,2.43h0C203.29,174.16,202.31,174.94,201.94,174.56Z" style="fill:#EA4659"></path><path d="M205.43,171.18a10.31,10.31,0,0,0-3,3.23Z" style="fill:#263238"></path><path d="M204.17,173.21a4,4,0,0,0,.47-1.19.6.6,0,0,0,0-.26.39.39,0,0,0-.32-.44c-.61-.1-1.73.28-2.08,0s-3.71-6.61-3.85-6.87c1.2,1.63,4.25,5.78,4.44,6.05s2.54-.21,2.87.28C205.89,171,205.09,172.21,204.17,173.21Z" style="opacity:0.1"></path><g style="opacity:0.1"><path d="M183.46,167.23c-.18.39-.85.46-1.49.16s-1-.85-.85-1.23.85-.47,1.49-.17S183.64,166.84,183.46,167.23Z"></path><path d="M183,168.61a4.3,4.3,0,0,1-2.55-1.21,1.35,1.35,0,0,1-.41-1.49c.27-.69.92-.67,1.55-.73,0,0,0-.06,0-.06-1.08-.12-2.36.32-2.16,1.64.23,1.56,2.19,2.21,3.54,2.1C183.14,168.85,183.18,168.63,183,168.61Z"></path><path d="M190,145.8c0,.43-.85.69-1.79.59s-1.68-.53-1.63-1,.85-.68,1.79-.58S190.09,145.38,190,145.8Z"></path><path d="M187.22,147.06a3.81,3.81,0,0,1-1.26-.78,1.06,1.06,0,0,1,.1-1.56,3.17,3.17,0,0,1,2.53-.66,0,0,0,0,0,0-.09c-1-.19-2.73-.07-3.35,1-.79,1.33.91,2.05,1.93,2.28C187.28,147.25,187.31,147.09,187.22,147.06Z"></path><path d="M198.24,155.79c0,.43-.6.76-1.3.74s-1.28-.38-1.27-.81.6-.75,1.3-.74S198.25,155.36,198.24,155.79Z"></path><path d="M196.82,157.5a5.35,5.35,0,0,1-2-1c-1-1.08.55-1.74,1.4-2a0,0,0,0,0,0-.08c-.93.09-2.34.65-2.14,1.81s1.75,1.63,2.72,1.47A.12.12,0,0,0,196.82,157.5Z"></path><path d="M177.5,156.9c.07.32-.32.67-.86.78s-1-.06-1.09-.38.31-.68.85-.79S177.43,156.57,177.5,156.9Z"></path><path d="M176.73,158.44a4.31,4.31,0,0,1-1.67-.4c-.95-.64.11-1.41.71-1.75a0,0,0,0,0,0-.06c-.68.23-1.65.91-1.29,1.74s1.61.93,2.3.64A.09.09,0,0,0,176.73,158.44Z"></path><path d="M203.2,159c.09.52-.54,1.07-1.41,1.22s-1.65-.15-1.74-.68.54-1.06,1.41-1.22S203.11,158.51,203.2,159Z"></path><path d="M200.08,158.16s0,0,0,0c-.82.62-2,1.63-1.15,2.74a2.47,2.47,0,0,0,3.11.49c.08-.05,0-.17-.06-.17a4.12,4.12,0,0,1-2.25-.28C198.36,160.23,199.3,158.86,200.08,158.16Z"></path></g></g></svg>